<svg width="215" height="215" viewBox="0 0 215 215" fill="none" xmlns="http://www.w3.org/2000/svg">
<g filter="url(#filter0_d_831_4750)">
<circle cx="107.802" cy="104.067" r="100.067" fill="#B1A6D0"/>
<circle cx="107.802" cy="104.067" r="101.067" stroke="#393431" stroke-width="2"/>
</g>
<path d="M208.265 104.577C208.265 126.605 200.996 148.018 187.586 165.494C174.176 182.97 155.375 195.533 134.097 201.234L108.198 104.577H208.265Z" fill="#EADDB0"/>
<path d="M134.097 201.234C112.819 206.936 90.255 205.457 69.9036 197.027C49.5521 188.597 32.551 173.687 21.5368 154.61C10.5227 135.533 6.1112 113.355 8.98646 91.5154C11.8617 69.6756 21.8631 49.3948 37.4394 33.8185L108.198 104.577L134.097 201.234Z" fill="#F3D7AB"/>
<path d="M134.097 201.234C112.819 206.936 90.255 205.457 69.9036 197.027C49.5521 188.597 32.551 173.687 21.5368 154.61C10.5227 135.533 6.1112 113.355 8.98646 91.5154C11.8617 69.6756 21.8631 49.3948 37.4394 33.8185L108.198 104.577L134.097 201.234Z" fill="#94B2D5"/>
<path d="M37.4394 33.8185C48.2928 22.9651 61.4976 14.7538 76.0321 9.82002C90.5666 4.88622 106.041 3.36209 121.259 5.36555C136.477 7.369 151.03 12.8463 163.792 21.3738C176.554 29.9013 187.184 41.2504 194.858 54.5431L108.198 104.577L37.4394 33.8185Z" fill="#F3D7AB"/>
<path d="M37.4394 33.8185C48.2928 22.9651 61.4976 14.7538 76.0321 9.82002C90.5666 4.88622 106.041 3.36209 121.259 5.36555C136.477 7.369 151.03 12.8463 163.792 21.3738C176.554 29.9013 187.184 41.2504 194.858 54.5431L108.198 104.577L37.4394 33.8185Z" fill="#F2BAA9"/>
<g filter="url(#filter1_d_831_4750)">
<path d="M55.4995 134.192L54.9663 137.281H41.0347L41.2944 134.697L51.4663 121.723H54.7612L50.3726 127.547L45.2456 134.178L55.4995 134.192ZM55.4585 121.723L52.0132 141.629H48.1714L51.6304 121.723H55.4585ZM71.2358 129.926L70.7163 133.358C70.5522 134.451 70.2879 135.513 69.9233 136.543C69.5679 137.564 69.0848 138.484 68.4741 139.305C67.8634 140.125 67.1069 140.772 66.2046 141.246C65.3022 141.711 64.2222 141.93 62.9644 141.902C62.0073 141.884 61.1916 141.707 60.5171 141.369C59.8517 141.032 59.3049 140.585 58.8765 140.029C58.4572 139.464 58.1382 138.822 57.9194 138.102C57.7098 137.373 57.5868 136.607 57.5503 135.805C57.5229 134.994 57.5594 134.182 57.6597 133.371L58.1655 129.926C58.3296 128.841 58.5939 127.789 58.9585 126.768C59.3231 125.747 59.8107 124.831 60.4214 124.02C61.0321 123.199 61.7886 122.561 62.6909 122.106C63.6024 121.641 64.6825 121.422 65.9312 121.449C66.8882 121.468 67.6994 121.645 68.3647 121.983C69.0392 122.311 69.5861 122.753 70.0054 123.309C70.4338 123.865 70.7528 124.503 70.9624 125.223C71.1812 125.943 71.3042 126.704 71.3315 127.506C71.368 128.308 71.3361 129.115 71.2358 129.926ZM66.8062 133.891L67.4761 129.365C67.5125 129.037 67.549 128.668 67.5854 128.258C67.631 127.839 67.6401 127.415 67.6128 126.986C67.5946 126.558 67.5216 126.162 67.394 125.797C67.2756 125.423 67.0796 125.123 66.8062 124.895C66.5327 124.658 66.159 124.526 65.6851 124.498C65.0288 124.471 64.4819 124.612 64.0444 124.922C63.616 125.223 63.2697 125.628 63.0054 126.139C62.7502 126.649 62.5542 127.192 62.4175 127.766C62.2808 128.34 62.1714 128.882 62.0894 129.393L61.4331 133.904C61.3966 134.233 61.3556 134.606 61.3101 135.026C61.2736 135.445 61.2645 135.873 61.2827 136.311C61.3101 136.748 61.383 137.154 61.5015 137.527C61.62 137.901 61.8159 138.207 62.0894 138.443C62.3628 138.68 62.7365 138.813 63.2104 138.84C63.8667 138.876 64.4136 138.74 64.8511 138.43C65.2886 138.111 65.6349 137.696 65.8901 137.186C66.1545 136.666 66.355 136.115 66.4917 135.531C66.6284 134.939 66.7332 134.392 66.8062 133.891ZM74.4214 126.604L74.5034 125.551C74.5854 124.731 74.8315 124.006 75.2417 123.377C75.6519 122.748 76.1896 122.265 76.855 121.928C77.5203 121.582 78.2677 121.417 79.0972 121.436C79.9084 121.445 80.6056 121.627 81.189 121.983C81.7723 122.338 82.2144 122.826 82.5151 123.445C82.825 124.056 82.9526 124.758 82.8979 125.551L82.8159 126.604C82.7339 127.424 82.4878 128.149 82.0776 128.777C81.6675 129.397 81.1297 129.876 80.4644 130.213C79.8081 130.55 79.0698 130.71 78.2495 130.692C77.4474 130.682 76.7502 130.505 76.1577 130.158C75.5744 129.803 75.1278 129.32 74.8179 128.709C74.508 128.089 74.3758 127.387 74.4214 126.604ZM77.1147 125.551L76.978 126.645C76.9598 126.945 76.9871 127.237 77.0601 127.52C77.133 127.802 77.2651 128.035 77.4565 128.217C77.6571 128.39 77.9305 128.481 78.2769 128.49C78.6506 128.499 78.9696 128.417 79.2339 128.244C79.5073 128.062 79.7261 127.825 79.8901 127.533C80.0542 127.242 80.1636 126.932 80.2183 126.604L80.3687 125.537C80.396 125.227 80.3732 124.931 80.3003 124.649C80.2365 124.357 80.1043 124.12 79.9038 123.938C79.7033 123.746 79.4253 123.646 79.0698 123.637C78.6961 123.628 78.3726 123.714 78.0991 123.897C77.8257 124.07 77.6069 124.307 77.4429 124.608C77.2788 124.908 77.1694 125.223 77.1147 125.551ZM81.7222 137.801L81.8042 136.748C81.8771 135.928 82.1232 135.208 82.5425 134.588C82.9618 133.959 83.5041 133.476 84.1694 133.139C84.8348 132.792 85.5822 132.624 86.4116 132.633C87.2228 132.651 87.9201 132.838 88.5034 133.193C89.0868 133.549 89.5288 134.032 89.8296 134.643C90.1395 135.253 90.2716 135.955 90.2261 136.748L90.1304 137.801C90.0483 138.63 89.8022 139.359 89.3921 139.988C88.991 140.608 88.4578 141.091 87.7925 141.438C87.1271 141.775 86.3843 141.934 85.564 141.916C84.7528 141.898 84.0509 141.716 83.4585 141.369C82.8752 141.014 82.4285 140.531 82.1187 139.92C81.8088 139.3 81.6766 138.594 81.7222 137.801ZM84.4155 136.748L84.3062 137.856C84.2788 138.147 84.3016 138.434 84.3745 138.717C84.4565 138.999 84.5978 139.232 84.7983 139.414C84.9989 139.596 85.2632 139.692 85.5913 139.701C85.9924 139.72 86.325 139.647 86.5894 139.483C86.8628 139.309 87.077 139.077 87.2319 138.785C87.396 138.484 87.5008 138.156 87.5464 137.801L87.6968 136.734C87.715 136.425 87.6877 136.128 87.6147 135.846C87.5509 135.563 87.4188 135.331 87.2183 135.149C87.0177 134.957 86.7443 134.857 86.3979 134.848C86.0243 134.839 85.6961 134.925 85.4136 135.108C85.1401 135.281 84.9168 135.513 84.7437 135.805C84.5796 136.096 84.4702 136.411 84.4155 136.748ZM89.146 124.69L77.1421 140.098L75.2827 138.977L87.3003 123.582L89.146 124.69Z" fill="#1F1F1F"/>
</g>
<g filter="url(#filter2_d_831_4750)">
<path d="M100.289 49.3194L101.906 49.3428C102.429 49.3272 102.902 49.2256 103.324 49.0381C103.753 48.8428 104.101 48.5577 104.367 48.1827C104.632 47.8077 104.796 47.3546 104.859 46.8233C104.914 46.3936 104.875 46.0186 104.742 45.6983C104.617 45.3702 104.41 45.1124 104.121 44.9249C103.832 44.7374 103.468 44.6397 103.031 44.6319C102.601 44.6241 102.21 44.7061 101.859 44.878C101.515 45.0421 101.226 45.2764 100.992 45.5811C100.757 45.8858 100.601 46.2452 100.523 46.6592L97.2183 46.6827C97.2808 45.6749 97.6011 44.8194 98.1792 44.1163C98.7651 43.4131 99.4956 42.8819 100.371 42.5225C101.246 42.1631 102.156 41.9874 103.101 41.9952C104.07 42.0108 104.953 42.2022 105.75 42.5694C106.546 42.9288 107.171 43.4639 107.625 44.1749C108.078 44.878 108.269 45.7491 108.199 46.7881C108.16 47.5069 107.96 48.1397 107.601 48.6866C107.242 49.2256 106.781 49.6749 106.218 50.0342C105.664 50.3936 105.058 50.6671 104.402 50.8546C103.753 51.0342 103.105 51.1241 102.457 51.1241L100.007 51.1124L100.289 49.3194ZM99.8901 51.8858L100.171 50.1397L102.269 50.1514C102.933 50.1671 103.57 50.2608 104.179 50.4327C104.796 50.6046 105.339 50.8624 105.808 51.2061C106.285 51.5421 106.652 51.9796 106.91 52.5186C107.167 53.0577 107.277 53.6983 107.238 54.4405C107.183 55.2842 106.964 56.0303 106.582 56.6788C106.207 57.3272 105.714 57.8663 105.105 58.296C104.503 58.7256 103.828 59.046 103.078 59.2569C102.335 59.4678 101.574 59.5694 100.792 59.5616C100.05 59.546 99.3628 59.4249 98.73 59.1983C98.105 58.9639 97.5581 58.6358 97.0894 58.2139C96.6206 57.7921 96.2612 57.2803 96.0112 56.6788C95.7612 56.0772 95.6401 55.3936 95.6479 54.628L98.9175 54.6397C98.9175 55.0772 98.9995 55.4639 99.1636 55.7999C99.3276 56.1358 99.5659 56.4014 99.8784 56.5967C100.199 56.7921 100.585 56.8936 101.039 56.9014C101.546 56.9092 102.011 56.8116 102.433 56.6085C102.855 56.4053 103.199 56.1163 103.464 55.7413C103.738 55.3585 103.906 54.9131 103.968 54.4053C104.039 53.8741 103.996 53.4288 103.839 53.0694C103.691 52.7022 103.445 52.421 103.101 52.2256C102.757 52.0225 102.328 51.9131 101.812 51.8975L99.8901 51.8858ZM121.464 49.2842L121.019 52.2256C120.878 53.1631 120.652 54.0733 120.339 54.9561C120.035 55.8311 119.621 56.6202 119.097 57.3233C118.574 58.0264 117.925 58.5811 117.152 58.9874C116.378 59.3858 115.453 59.5733 114.375 59.5499C113.554 59.5342 112.855 59.3819 112.277 59.0928C111.707 58.8038 111.238 58.421 110.871 57.9444C110.511 57.46 110.238 56.9092 110.05 56.2921C109.871 55.6671 109.765 55.0108 109.734 54.3233C109.71 53.628 109.742 52.9327 109.828 52.2374L110.261 49.2842C110.402 48.3546 110.628 47.4522 110.941 46.5772C111.253 45.7022 111.671 44.9171 112.195 44.2217C112.718 43.5186 113.367 42.9717 114.14 42.5811C114.921 42.1827 115.847 41.9952 116.917 42.0186C117.738 42.0342 118.433 42.1866 119.003 42.4756C119.582 42.7569 120.05 43.1358 120.41 43.6124C120.777 44.0889 121.05 44.6358 121.23 45.253C121.417 45.8702 121.523 46.5225 121.546 47.21C121.578 47.8975 121.55 48.5889 121.464 49.2842ZM117.667 52.6827L118.242 48.8038C118.273 48.5225 118.304 48.2061 118.335 47.8546C118.375 47.4952 118.382 47.1319 118.359 46.7647C118.343 46.3975 118.281 46.0577 118.171 45.7452C118.07 45.4249 117.902 45.1671 117.667 44.9717C117.433 44.7686 117.113 44.6553 116.707 44.6319C116.144 44.6085 115.675 44.7296 115.3 44.9952C114.933 45.253 114.636 45.6006 114.41 46.0381C114.191 46.4756 114.023 46.9405 113.906 47.4327C113.789 47.9249 113.695 48.3897 113.625 48.8272L113.062 52.6944C113.031 52.9756 112.996 53.296 112.957 53.6553C112.925 54.0147 112.917 54.3819 112.933 54.7569C112.957 55.1319 113.019 55.4796 113.121 55.7999C113.222 56.1202 113.39 56.3819 113.625 56.585C113.859 56.7881 114.179 56.9014 114.585 56.9249C115.148 56.9561 115.617 56.8389 115.992 56.5733C116.367 56.2999 116.664 55.9444 116.882 55.5069C117.109 55.0616 117.281 54.5889 117.398 54.0889C117.515 53.5811 117.605 53.1124 117.667 52.6827ZM124.195 46.4366L124.265 45.5342C124.335 44.8311 124.546 44.21 124.898 43.671C125.25 43.1319 125.71 42.7178 126.281 42.4288C126.851 42.1319 127.492 41.9913 128.203 42.0069C128.898 42.0147 129.496 42.171 129.996 42.4756C130.496 42.7803 130.875 43.1983 131.132 43.7296C131.398 44.253 131.507 44.8546 131.46 45.5342L131.39 46.4366C131.32 47.1397 131.109 47.7608 130.757 48.2999C130.406 48.8311 129.945 49.2413 129.375 49.5303C128.812 49.8194 128.179 49.9561 127.476 49.9405C126.789 49.9327 126.191 49.7803 125.683 49.4835C125.183 49.1788 124.8 48.7647 124.535 48.2413C124.269 47.71 124.156 47.1085 124.195 46.4366ZM126.503 45.5342L126.386 46.4717C126.371 46.7296 126.394 46.9796 126.457 47.2217C126.519 47.4639 126.632 47.6631 126.796 47.8194C126.968 47.9678 127.203 48.046 127.5 48.0538C127.82 48.0616 128.093 47.9913 128.32 47.8428C128.554 47.6866 128.742 47.4835 128.882 47.2335C129.023 46.9835 129.117 46.7178 129.164 46.4366L129.292 45.5225C129.316 45.2569 129.296 45.003 129.234 44.7608C129.179 44.5108 129.066 44.3077 128.894 44.1514C128.722 43.9874 128.484 43.9014 128.179 43.8936C127.859 43.8858 127.582 43.96 127.347 44.1163C127.113 44.2647 126.925 44.4678 126.785 44.7256C126.644 44.9835 126.55 45.253 126.503 45.5342ZM130.453 56.0342L130.523 55.1319C130.585 54.4288 130.796 53.8116 131.156 53.2803C131.515 52.7413 131.98 52.3272 132.55 52.0381C133.121 51.7413 133.761 51.5967 134.472 51.6046C135.167 51.6202 135.765 51.7803 136.265 52.085C136.765 52.3897 137.144 52.8038 137.402 53.3272C137.667 53.8506 137.781 54.4522 137.742 55.1319L137.66 56.0342C137.589 56.7452 137.378 57.3702 137.027 57.9092C136.683 58.4405 136.226 58.8546 135.656 59.1514C135.085 59.4405 134.449 59.5772 133.746 59.5616C133.05 59.546 132.449 59.3897 131.941 59.0928C131.441 58.7881 131.058 58.3741 130.792 57.8506C130.527 57.3194 130.414 56.7139 130.453 56.0342ZM132.761 55.1319L132.667 56.0811C132.644 56.3311 132.664 56.5772 132.726 56.8194C132.796 57.0616 132.917 57.2608 133.089 57.4171C133.261 57.5733 133.488 57.6553 133.769 57.6631C134.113 57.6788 134.398 57.6163 134.625 57.4756C134.859 57.3272 135.042 57.128 135.175 56.878C135.316 56.6202 135.406 56.3389 135.445 56.0342L135.574 55.1202C135.589 54.8546 135.566 54.6006 135.503 54.3585C135.449 54.1163 135.335 53.9171 135.164 53.7608C134.992 53.5967 134.757 53.5108 134.46 53.503C134.14 53.4952 133.859 53.5694 133.617 53.7256C133.382 53.8741 133.191 54.0733 133.042 54.3233C132.902 54.5733 132.808 54.8428 132.761 55.1319ZM136.816 44.796L126.527 58.003L124.933 57.0421L135.234 43.8467L136.816 44.796Z" fill="#1F1F1F"/>
</g>
<g filter="url(#filter3_d_831_4750)">
<path d="M155.794 151.417L155.443 153.614H146L146.302 151.632L151.429 146.798C151.729 146.505 152.048 146.179 152.386 145.821C152.731 145.463 153.034 145.082 153.294 144.679C153.561 144.268 153.727 143.839 153.792 143.39C153.838 143.044 153.822 142.722 153.744 142.423C153.666 142.117 153.516 141.866 153.294 141.671C153.073 141.475 152.767 141.375 152.376 141.368C151.908 141.355 151.511 141.469 151.185 141.71C150.86 141.944 150.602 142.253 150.414 142.638C150.231 143.015 150.111 143.412 150.052 143.829L147.328 143.849C147.386 142.924 147.66 142.11 148.148 141.407C148.643 140.697 149.274 140.147 150.042 139.757C150.817 139.36 151.66 139.171 152.572 139.19C153.379 139.203 154.102 139.363 154.74 139.669C155.378 139.968 155.869 140.411 156.214 140.997C156.559 141.576 156.696 142.293 156.625 143.145C156.572 143.731 156.419 144.278 156.166 144.786C155.918 145.294 155.606 145.772 155.228 146.222C154.857 146.671 154.46 147.097 154.037 147.501C153.613 147.898 153.203 148.282 152.806 148.653L149.945 151.397L155.794 151.417ZM167.738 145.255L167.367 147.706C167.25 148.487 167.061 149.246 166.8 149.981C166.546 150.71 166.201 151.368 165.765 151.954C165.329 152.54 164.789 153.002 164.144 153.341C163.5 153.673 162.728 153.829 161.83 153.809C161.146 153.796 160.563 153.669 160.082 153.429C159.606 153.188 159.216 152.869 158.91 152.472C158.61 152.068 158.382 151.609 158.226 151.095C158.076 150.574 157.988 150.027 157.962 149.454C157.943 148.875 157.969 148.295 158.041 147.716L158.402 145.255C158.519 144.48 158.708 143.728 158.968 142.999C159.229 142.27 159.577 141.615 160.013 141.036C160.449 140.45 160.99 139.994 161.634 139.669C162.285 139.337 163.057 139.181 163.949 139.2C164.632 139.213 165.212 139.34 165.687 139.581C166.169 139.815 166.559 140.131 166.859 140.528C167.165 140.925 167.393 141.381 167.542 141.895C167.699 142.41 167.787 142.953 167.806 143.526C167.832 144.099 167.809 144.675 167.738 145.255ZM164.574 148.087L165.052 144.854C165.078 144.62 165.104 144.356 165.13 144.063C165.163 143.764 165.169 143.461 165.15 143.155C165.137 142.849 165.085 142.566 164.994 142.306C164.909 142.039 164.769 141.824 164.574 141.661C164.378 141.492 164.111 141.397 163.773 141.378C163.304 141.358 162.914 141.459 162.601 141.681C162.295 141.895 162.048 142.185 161.859 142.55C161.677 142.914 161.537 143.302 161.439 143.712C161.341 144.122 161.263 144.509 161.205 144.874L160.736 148.097C160.71 148.331 160.681 148.598 160.648 148.897C160.622 149.197 160.615 149.503 160.628 149.815C160.648 150.128 160.7 150.418 160.785 150.684C160.869 150.951 161.009 151.169 161.205 151.339C161.4 151.508 161.667 151.602 162.005 151.622C162.474 151.648 162.865 151.55 163.177 151.329C163.49 151.101 163.737 150.805 163.919 150.44C164.108 150.069 164.251 149.675 164.349 149.259C164.447 148.835 164.522 148.445 164.574 148.087ZM170.013 142.882L170.072 142.13C170.13 141.544 170.306 141.026 170.599 140.577C170.892 140.128 171.276 139.783 171.751 139.542C172.227 139.294 172.761 139.177 173.353 139.19C173.932 139.197 174.431 139.327 174.847 139.581C175.264 139.835 175.58 140.183 175.794 140.626C176.016 141.062 176.107 141.563 176.068 142.13L176.009 142.882C175.951 143.468 175.775 143.985 175.482 144.434C175.189 144.877 174.805 145.219 174.33 145.46C173.861 145.701 173.333 145.815 172.748 145.802C172.175 145.795 171.677 145.668 171.253 145.421C170.837 145.167 170.518 144.822 170.296 144.386C170.075 143.943 169.981 143.442 170.013 142.882ZM171.937 142.13L171.839 142.911C171.826 143.126 171.846 143.334 171.898 143.536C171.95 143.738 172.044 143.904 172.181 144.034C172.324 144.158 172.52 144.223 172.767 144.229C173.034 144.236 173.262 144.177 173.451 144.054C173.646 143.923 173.802 143.754 173.919 143.546C174.037 143.337 174.115 143.116 174.154 142.882L174.261 142.12C174.281 141.899 174.264 141.687 174.212 141.485C174.167 141.277 174.072 141.108 173.929 140.977C173.786 140.841 173.587 140.769 173.333 140.763C173.067 140.756 172.835 140.818 172.64 140.948C172.445 141.072 172.289 141.241 172.171 141.456C172.054 141.671 171.976 141.895 171.937 142.13ZM175.228 150.88L175.287 150.128C175.339 149.542 175.514 149.028 175.814 148.585C176.113 148.136 176.501 147.791 176.976 147.55C177.451 147.302 177.985 147.182 178.578 147.188C179.157 147.201 179.655 147.335 180.072 147.589C180.488 147.843 180.804 148.188 181.019 148.624C181.24 149.06 181.335 149.561 181.302 150.128L181.234 150.88C181.175 151.472 181 151.993 180.707 152.442C180.42 152.885 180.039 153.23 179.564 153.477C179.089 153.718 178.558 153.832 177.972 153.819C177.393 153.806 176.891 153.676 176.468 153.429C176.052 153.175 175.733 152.83 175.511 152.393C175.29 151.951 175.195 151.446 175.228 150.88ZM177.152 150.128L177.074 150.919C177.054 151.127 177.07 151.332 177.123 151.534C177.181 151.736 177.282 151.902 177.425 152.032C177.569 152.162 177.757 152.231 177.992 152.237C178.278 152.25 178.516 152.198 178.705 152.081C178.9 151.957 179.053 151.791 179.164 151.583C179.281 151.368 179.356 151.134 179.388 150.88L179.496 150.118C179.509 149.897 179.489 149.685 179.437 149.483C179.391 149.281 179.297 149.115 179.154 148.985C179.011 148.849 178.815 148.777 178.568 148.77C178.301 148.764 178.067 148.826 177.865 148.956C177.669 149.08 177.51 149.246 177.386 149.454C177.269 149.662 177.191 149.887 177.152 150.128ZM180.531 141.515L171.957 152.52L170.628 151.72L179.212 140.724L180.531 141.515Z" fill="#1F1F1F"/>
</g>
<g filter="url(#filter4_d_831_4750)">
<path d="M166.498 85.6404L164.816 95.614H162.896L164.229 87.9509L161.809 88.696L162.089 87.0691L166.252 85.6404H166.498ZM175.446 89.7625L175.187 91.4783C175.104 92.0251 174.972 92.5561 174.79 93.071C174.612 93.5815 174.371 94.0417 174.065 94.4519C173.76 94.8621 173.382 95.1856 172.931 95.4226C172.479 95.655 171.939 95.7644 171.311 95.7507C170.832 95.7416 170.424 95.6528 170.087 95.4841C169.754 95.3155 169.481 95.0922 169.267 94.8142C169.057 94.5317 168.897 94.2104 168.788 93.8503C168.683 93.4858 168.622 93.1029 168.604 92.7019C168.59 92.2963 168.608 91.8907 168.658 91.4851L168.911 89.7625C168.993 89.2201 169.125 88.6938 169.308 88.1833C169.49 87.6729 169.734 87.2149 170.039 86.8093C170.344 86.3992 170.723 86.0802 171.174 85.8523C171.63 85.6199 172.17 85.5105 172.794 85.5242C173.272 85.5333 173.678 85.6222 174.011 85.7908C174.348 85.9548 174.621 86.1759 174.831 86.4539C175.045 86.7319 175.205 87.0509 175.31 87.4109C175.419 87.7709 175.48 88.1514 175.494 88.5525C175.512 88.9535 175.496 89.3569 175.446 89.7625ZM173.231 91.7449L173.566 89.4822C173.585 89.3181 173.603 89.1335 173.621 88.9285C173.644 88.7188 173.648 88.5069 173.635 88.2927C173.626 88.0785 173.589 87.8803 173.525 87.698C173.466 87.5111 173.368 87.3608 173.231 87.2468C173.095 87.1283 172.908 87.0623 172.671 87.0486C172.343 87.0349 172.069 87.1056 171.851 87.2605C171.636 87.4109 171.463 87.6137 171.331 87.8689C171.203 88.1241 171.105 88.3953 171.037 88.6824C170.969 88.9695 170.914 89.2406 170.873 89.4958L170.545 91.7517C170.527 91.9158 170.506 92.1026 170.483 92.3123C170.465 92.5219 170.461 92.7361 170.47 92.9548C170.483 93.1736 170.52 93.3764 170.579 93.5632C170.638 93.7501 170.736 93.9028 170.873 94.0212C171.01 94.1397 171.197 94.2058 171.434 94.2195C171.762 94.2377 172.035 94.1694 172.254 94.0144C172.473 93.8549 172.646 93.6475 172.773 93.3923C172.906 93.1326 173.006 92.8569 173.074 92.5652C173.143 92.269 173.195 91.9955 173.231 91.7449ZM177.039 88.1013L177.08 87.575C177.121 87.1648 177.244 86.8025 177.449 86.488C177.654 86.1736 177.923 85.932 178.256 85.7634C178.589 85.5903 178.962 85.5082 179.377 85.5173C179.783 85.5219 180.131 85.613 180.423 85.7908C180.715 85.9685 180.936 86.2123 181.086 86.5222C181.241 86.8276 181.305 87.1785 181.277 87.575L181.236 88.1013C181.195 88.5115 181.072 88.8738 180.867 89.1882C180.662 89.4981 180.393 89.7374 180.061 89.906C179.732 90.0746 179.363 90.1544 178.953 90.1453C178.552 90.1407 178.203 90.0518 177.907 89.8787C177.616 89.7009 177.392 89.4594 177.237 89.1541C177.082 88.8442 177.016 88.4932 177.039 88.1013ZM178.386 87.575L178.317 88.1218C178.308 88.2722 178.322 88.4181 178.358 88.5593C178.395 88.7006 178.461 88.8168 178.557 88.908C178.657 88.9945 178.794 89.0401 178.967 89.0447C179.154 89.0492 179.313 89.0082 179.445 88.9216C179.582 88.8305 179.691 88.712 179.773 88.5662C179.855 88.4203 179.91 88.2654 179.938 88.1013L180.013 87.5681C180.026 87.4132 180.015 87.2651 179.979 87.1238C179.947 86.9779 179.881 86.8595 179.78 86.7683C179.68 86.6726 179.541 86.6225 179.363 86.6179C179.176 86.6134 179.015 86.6567 178.878 86.7478C178.741 86.8344 178.632 86.9529 178.55 87.1033C178.468 87.2537 178.413 87.4109 178.386 87.575ZM180.689 93.7L180.73 93.1736C180.767 92.7634 180.89 92.4034 181.1 92.0935C181.309 91.7791 181.58 91.5375 181.913 91.3689C182.246 91.1957 182.619 91.1114 183.034 91.116C183.44 91.1251 183.788 91.2185 184.08 91.3962C184.372 91.574 184.593 91.8155 184.743 92.1208C184.898 92.4262 184.964 92.7771 184.941 93.1736L184.894 93.7C184.853 94.1147 184.729 94.4792 184.524 94.7937C184.324 95.1036 184.057 95.3451 183.725 95.5183C183.392 95.6869 183.021 95.7667 182.61 95.7576C182.205 95.7485 181.854 95.6573 181.558 95.4841C181.266 95.3064 181.043 95.0649 180.888 94.7595C180.733 94.4496 180.667 94.0964 180.689 93.7ZM182.036 93.1736L181.981 93.7273C181.968 93.8731 181.979 94.0167 182.016 94.158C182.057 94.2992 182.127 94.4154 182.228 94.5066C182.328 94.5977 182.46 94.6456 182.624 94.6501C182.825 94.6593 182.991 94.6228 183.123 94.5408C183.26 94.4542 183.367 94.338 183.444 94.1921C183.526 94.0417 183.579 93.8777 183.602 93.7L183.677 93.1667C183.686 93.0118 183.672 92.8637 183.636 92.7224C183.604 92.5811 183.538 92.4649 183.438 92.3738C183.337 92.2781 183.201 92.2279 183.027 92.2234C182.84 92.2188 182.676 92.2621 182.535 92.3533C182.398 92.4399 182.287 92.5561 182.2 92.7019C182.118 92.8477 182.063 93.005 182.036 93.1736ZM184.401 87.1443L178.399 94.8484L177.47 94.2878L183.479 86.5906L184.401 87.1443Z" fill="#1F1F1F"/>
</g>
<defs>
<filter id="filter0_d_831_4750" x="0.734863" y="0" width="214.135" height="214.135" filterUnits="userSpaceOnUse" color-interpolation-filters="sRGB">
<feFlood flood-opacity="0" result="BackgroundImageFix"/>
<feColorMatrix in="SourceAlpha" type="matrix" values="0 0 0 0 0 0 0 0 0 0 0 0 0 0 0 0 0 0 127 0" result="hardAlpha"/>
<feOffset dy="3"/>
<feGaussianBlur stdDeviation="2.5"/>
<feComposite in2="hardAlpha" operator="out"/>
<feColorMatrix type="matrix" values="0 0 0 0 0 0 0 0 0 0 0 0 0 0 0 0 0 0 0.25 0"/>
<feBlend mode="normal" in2="BackgroundImageFix" result="effect1_dropShadow_831_4750"/>
<feBlend mode="normal" in="SourceGraphic" in2="effect1_dropShadow_831_4750" result="shape"/>
</filter>
<filter id="filter1_d_831_4750" x="36.0347" y="119.408" width="59.2598" height="30.5352" filterUnits="userSpaceOnUse" color-interpolation-filters="sRGB">
<feFlood flood-opacity="0" result="BackgroundImageFix"/>
<feColorMatrix in="SourceAlpha" type="matrix" values="0 0 0 0 0 0 0 0 0 0 0 0 0 0 0 0 0 0 127 0" result="hardAlpha"/>
<feOffset dy="3"/>
<feGaussianBlur stdDeviation="2.5"/>
<feComposite in2="hardAlpha" operator="out"/>
<feColorMatrix type="matrix" values="0 0 0 0 0 0 0 0 0 0 0 0 0 0 0 0 0 0 0.25 0"/>
<feBlend mode="normal" in2="BackgroundImageFix" result="effect1_dropShadow_831_4750"/>
<feBlend mode="normal" in="SourceGraphic" in2="effect1_dropShadow_831_4750" result="shape"/>
</filter>
<filter id="filter2_d_831_4750" x="90.6362" y="39.9835" width="52.1641" height="27.6016" filterUnits="userSpaceOnUse" color-interpolation-filters="sRGB">
<feFlood flood-opacity="0" result="BackgroundImageFix"/>
<feColorMatrix in="SourceAlpha" type="matrix" values="0 0 0 0 0 0 0 0 0 0 0 0 0 0 0 0 0 0 127 0" result="hardAlpha"/>
<feOffset dy="3"/>
<feGaussianBlur stdDeviation="2.5"/>
<feComposite in2="hardAlpha" operator="out"/>
<feColorMatrix type="matrix" values="0 0 0 0 0 0 0 0 0 0 0 0 0 0 0 0 0 0 0.25 0"/>
<feBlend mode="normal" in2="BackgroundImageFix" result="effect1_dropShadow_831_4750"/>
<feBlend mode="normal" in="SourceGraphic" in2="effect1_dropShadow_831_4750" result="shape"/>
</filter>
<filter id="filter3_d_831_4750" x="141" y="137.161" width="45.3516" height="24.6777" filterUnits="userSpaceOnUse" color-interpolation-filters="sRGB">
<feFlood flood-opacity="0" result="BackgroundImageFix"/>
<feColorMatrix in="SourceAlpha" type="matrix" values="0 0 0 0 0 0 0 0 0 0 0 0 0 0 0 0 0 0 127 0" result="hardAlpha"/>
<feOffset dy="3"/>
<feGaussianBlur stdDeviation="2.5"/>
<feComposite in2="hardAlpha" operator="out"/>
<feColorMatrix type="matrix" values="0 0 0 0 0 0 0 0 0 0 0 0 0 0 0 0 0 0 0.25 0"/>
<feBlend mode="normal" in2="BackgroundImageFix" result="effect1_dropShadow_831_4750"/>
<feBlend mode="normal" in="SourceGraphic" in2="effect1_dropShadow_831_4750" result="shape"/>
</filter>
<filter id="filter4_d_831_4750" x="156.809" y="83.5037" width="33.167" height="20.2676" filterUnits="userSpaceOnUse" color-interpolation-filters="sRGB">
<feFlood flood-opacity="0" result="BackgroundImageFix"/>
<feColorMatrix in="SourceAlpha" type="matrix" values="0 0 0 0 0 0 0 0 0 0 0 0 0 0 0 0 0 0 127 0" result="hardAlpha"/>
<feOffset dy="3"/>
<feGaussianBlur stdDeviation="2.5"/>
<feComposite in2="hardAlpha" operator="out"/>
<feColorMatrix type="matrix" values="0 0 0 0 0 0 0 0 0 0 0 0 0 0 0 0 0 0 0.25 0"/>
<feBlend mode="normal" in2="BackgroundImageFix" result="effect1_dropShadow_831_4750"/>
<feBlend mode="normal" in="SourceGraphic" in2="effect1_dropShadow_831_4750" result="shape"/>
</filter>
</defs>
</svg>
