<svg width="20" height="20" viewBox="0 0 20 20" fill="none" xmlns="http://www.w3.org/2000/svg">
<path d="M10 11.1875C13.1055 11.1875 15.625 8.79395 15.625 5.84375C15.625 2.89355 13.1055 0.5 10 0.5C6.89453 0.5 4.375 2.89355 4.375 5.84375C4.375 8.79395 6.89453 11.1875 10 11.1875ZM15 12.375H12.8477C11.9805 12.7535 11.0156 12.9688 10 12.9688C8.98438 12.9688 8.02344 12.7535 7.15234 12.375H5C2.23828 12.375 0 14.5014 0 17.125V17.7188C0 18.7021 0.839844 19.5 1.875 19.5H18.125C19.1602 19.5 20 18.7021 20 17.7188V17.125C20 14.5014 17.7617 12.375 15 12.375Z" fill="#1F1F1F"/>
</svg>
