<svg width="893" height="292" viewBox="0 0 893 292" fill="none" xmlns="http://www.w3.org/2000/svg">
<g clip-path="url(#clip0_1003_1642)">
<g filter="url(#filter0_d_1003_1642)">
<path d="M54.2136 146.164L10.2852 160.194C9.15085 160.556 8.20957 161.359 7.67276 162.422C7.23625 163.286 7.09426 164.269 7.26843 165.222L7.42243 166.064C7.47668 166.361 7.50398 166.662 7.50398 166.963V279.008C7.50398 281.767 9.73915 284.005 12.4984 284.008L890.594 284.994C893.318 284.998 895.544 282.819 895.599 280.095L899.353 93.3027C899.424 89.788 895.941 87.2997 892.639 88.5056L817.26 116.034C816.683 116.245 816.15 116.56 815.688 116.963L766.469 159.902C765.824 160.465 765.046 160.852 764.209 161.028L706.524 173.127C706.187 173.198 705.843 173.234 705.498 173.234H642.807C641.343 173.234 639.952 172.592 639.002 171.478L549.52 66.5171C548.427 65.2343 546.76 64.5889 545.088 64.8005L481.698 72.8222C481.064 72.9024 480.421 72.8604 479.803 72.6984L380.665 46.7175C378.967 46.2724 377.159 46.7509 375.903 47.9782L301.888 120.311C300.603 121.566 298.745 122.036 297.019 121.542L179.36 87.9123L135.083 69.7249C133.209 68.9553 131.056 69.3922 129.631 70.8313L56.2448 144.92C55.6779 145.492 54.9811 145.919 54.2136 146.164Z" fill="url(#paint0_linear_1003_1642)" shape-rendering="crispEdges"/>
<path d="M54.2136 146.164L10.2852 160.194C9.15085 160.556 8.20957 161.359 7.67276 162.422C7.23625 163.286 7.09426 164.269 7.26843 165.222L7.42243 166.064C7.47668 166.361 7.50398 166.662 7.50398 166.963V279.008C7.50398 281.767 9.73915 284.005 12.4984 284.008L890.594 284.994C893.318 284.998 895.544 282.819 895.599 280.095L899.353 93.3027C899.424 89.788 895.941 87.2997 892.639 88.5056L817.26 116.034C816.683 116.245 816.15 116.56 815.688 116.963L766.469 159.902C765.824 160.465 765.046 160.852 764.209 161.028L706.524 173.127C706.187 173.198 705.843 173.234 705.498 173.234H642.807C641.343 173.234 639.952 172.592 639.002 171.478L549.52 66.5171C548.427 65.2343 546.76 64.5889 545.088 64.8005L481.698 72.8222C481.064 72.9024 480.421 72.8604 479.803 72.6984L380.665 46.7175C378.967 46.2724 377.159 46.7509 375.903 47.9782L301.888 120.311C300.603 121.566 298.745 122.036 297.019 121.542L179.36 87.9123L135.083 69.7249C133.209 68.9553 131.056 69.3922 129.631 70.8313L56.2448 144.92C55.6779 145.492 54.9811 145.919 54.2136 146.164Z" stroke="#393431" stroke-linejoin="round" shape-rendering="crispEdges"/>
</g>
<line x1="54.8737" y1="146" x2="54.8737" y2="285" stroke="#ABA39D" stroke-dasharray="2 2"/>
<line x1="132.486" y1="69" x2="132.486" y2="285" stroke="#ABA39D" stroke-dasharray="2 2"/>
<line x1="298.799" y1="121" x2="298.799" y2="285" stroke="#ABA39D" stroke-dasharray="2 2"/>
<line x1="378.427" y1="46" x2="378.427" y2="285" stroke="#ABA39D" stroke-dasharray="2 2"/>
<line x1="481.239" y1="73" x2="481.239" y2="285" stroke="#ABA39D" stroke-dasharray="2 2"/>
<path d="M641.003 173L641.003 285" stroke="#ABA39D" stroke-dasharray="2 2"/>
<line x1="766.489" y1="160" x2="766.489" y2="284" stroke="#ABA39D" stroke-dasharray="2 2"/>
<line x1="815.879" y1="116" x2="815.879" y2="285" stroke="#ABA39D" stroke-dasharray="2 2"/>
<line x1="546.755" y1="64" x2="546.755" y2="284" stroke="#ABA39D" stroke-dasharray="2 2"/>
<g filter="url(#filter1_d_1003_1642)">
<ellipse cx="132.49" cy="69.5" rx="3.52784" ry="3.5" fill="#E9E4DD"/>
<path d="M135.518 69.5C135.518 71.1531 134.166 72.5 132.49 72.5C130.814 72.5 129.462 71.1531 129.462 69.5C129.462 67.8469 130.814 66.5 132.49 66.5C134.166 66.5 135.518 67.8469 135.518 69.5Z" stroke="black"/>
</g>
<g filter="url(#filter2_d_1003_1642)">
<ellipse cx="54.8776" cy="145.5" rx="3.52784" ry="3.5" fill="#E9E4DD"/>
<path d="M57.9055 145.5C57.9055 147.153 56.5536 148.5 54.8776 148.5C53.2017 148.5 51.8498 147.153 51.8498 145.5C51.8498 143.847 53.2017 142.5 54.8776 142.5C56.5536 142.5 57.9055 143.847 57.9055 145.5Z" stroke="black"/>
</g>
<g filter="url(#filter3_d_1003_1642)">
<ellipse cx="298.803" cy="121.5" rx="3.52784" ry="3.5" fill="#E9E4DD"/>
<path d="M301.83 121.5C301.83 123.153 300.479 124.5 298.803 124.5C297.127 124.5 295.775 123.153 295.775 121.5C295.775 119.847 297.127 118.5 298.803 118.5C300.479 118.5 301.83 119.847 301.83 121.5Z" stroke="black"/>
</g>
<g filter="url(#filter4_d_1003_1642)">
<ellipse cx="378.431" cy="46.5" rx="3.52784" ry="3.5" fill="#E9E4DD"/>
<path d="M381.459 46.5C381.459 48.1531 380.107 49.5 378.431 49.5C376.755 49.5 375.403 48.1531 375.403 46.5C375.403 44.8469 376.755 43.5 378.431 43.5C380.107 43.5 381.459 44.8469 381.459 46.5Z" stroke="black"/>
</g>
<g filter="url(#filter5_d_1003_1642)">
<ellipse cx="546.759" cy="64.5" rx="3.52784" ry="3.5" fill="#E9E4DD"/>
<path d="M549.787 64.5C549.787 66.1531 548.435 67.5 546.759 67.5C545.083 67.5 543.732 66.1531 543.732 64.5C543.732 62.8469 545.083 61.5 546.759 61.5C548.435 61.5 549.787 62.8469 549.787 64.5Z" stroke="black"/>
</g>
<g filter="url(#filter6_d_1003_1642)">
<ellipse cx="481.243" cy="72.5" rx="3.52784" ry="3.5" fill="#E9E4DD"/>
<path d="M484.27 72.5C484.27 74.1531 482.919 75.5 481.243 75.5C479.567 75.5 478.215 74.1531 478.215 72.5C478.215 70.8469 479.567 69.5 481.243 69.5C482.919 69.5 484.27 70.8469 484.27 72.5Z" stroke="black"/>
</g>
<g filter="url(#filter7_d_1003_1642)">
<ellipse cx="641.507" cy="173.5" rx="3.52784" ry="3.5" fill="#E9E4DD"/>
<path d="M644.535 173.5C644.535 175.153 643.183 176.5 641.507 176.5C639.831 176.5 638.479 175.153 638.479 173.5C638.479 171.847 639.831 170.5 641.507 170.5C643.183 170.5 644.535 171.847 644.535 173.5Z" stroke="black"/>
</g>
<g filter="url(#filter8_d_1003_1642)">
<ellipse cx="766.493" cy="160.5" rx="3.52784" ry="3.5" fill="#E9E4DD"/>
<path d="M769.521 160.5C769.521 162.153 768.169 163.5 766.493 163.5C764.817 163.5 763.466 162.153 763.466 160.5C763.466 158.847 764.817 157.5 766.493 157.5C768.169 157.5 769.521 158.847 769.521 160.5Z" stroke="black"/>
</g>
<g filter="url(#filter9_d_1003_1642)">
<ellipse cx="815.883" cy="117.5" rx="3.52784" ry="3.5" fill="#E9E4DD"/>
<path d="M818.911 117.5C818.911 119.153 817.559 120.5 815.883 120.5C814.207 120.5 812.855 119.153 812.855 117.5C812.855 115.847 814.207 114.5 815.883 114.5C817.559 114.5 818.911 115.847 818.911 117.5Z" stroke="black"/>
</g>
<g filter="url(#filter10_d_1003_1642)">
<path d="M10.5957 173.249V174.288H7.25977V173.249H10.5957ZM13.6248 173.249V174.288H10.2889V173.249H13.6248ZM16.654 173.249V174.288H13.318V173.249H16.654ZM19.6831 173.249V174.288H16.3472V173.249H19.6831ZM22.7123 173.249V174.288H19.3763V173.249H22.7123ZM30.6018 167.992V178H29.3371V169.571L26.7873 170.501V169.359L30.4035 167.992H30.6018ZM35.7287 167.5V178H34.4572V167.5H35.7287ZM40.2473 170.604L37.0207 174.056L35.216 175.929L35.1135 174.582L36.4055 173.037L38.7023 170.604H40.2473ZM39.092 178L36.4533 174.473L37.1096 173.345L40.5822 178H39.092ZM47.3527 169.738V171.228H46.6203V169.738H47.3527ZM47.2648 177.712V179.016H46.5373V177.712H47.2648ZM48.2414 176.169C48.2414 175.974 48.1975 175.798 48.1096 175.642C48.0217 175.485 47.8768 175.342 47.675 175.212C47.4732 175.082 47.203 174.961 46.8645 174.851C46.4543 174.724 46.0995 174.569 45.8 174.387C45.5038 174.204 45.2743 173.978 45.1115 173.708C44.952 173.438 44.8723 173.111 44.8723 172.727C44.8723 172.326 44.9585 171.981 45.1311 171.691C45.3036 171.402 45.5477 171.179 45.8635 171.022C46.1792 170.866 46.5503 170.788 46.9768 170.788C47.3088 170.788 47.605 170.839 47.8654 170.939C48.1258 171.037 48.3456 171.184 48.5246 171.379C48.7069 171.574 48.8452 171.813 48.9396 172.097C49.0373 172.38 49.0861 172.707 49.0861 173.078H48.1877C48.1877 172.86 48.1617 172.66 48.1096 172.478C48.0575 172.295 47.9794 172.137 47.8752 172.004C47.771 171.867 47.6441 171.763 47.4943 171.691C47.3446 171.617 47.1721 171.579 46.9768 171.579C46.7033 171.579 46.4771 171.626 46.298 171.721C46.1223 171.815 45.9921 171.949 45.9074 172.121C45.8228 172.29 45.7805 172.487 45.7805 172.712C45.7805 172.92 45.8228 173.103 45.9074 173.259C45.9921 173.415 46.1353 173.557 46.3371 173.684C46.5422 173.807 46.8238 173.929 47.1818 174.05C47.6018 174.183 47.9582 174.341 48.2512 174.523C48.5441 174.702 48.7671 174.924 48.9201 175.188C49.0731 175.448 49.1496 175.772 49.1496 176.159C49.1496 176.579 49.0552 176.934 48.8664 177.224C48.6776 177.51 48.4123 177.728 48.0705 177.878C47.7287 178.028 47.3283 178.103 46.8693 178.103C46.5926 178.103 46.3192 178.065 46.049 177.99C45.7788 177.915 45.5347 177.793 45.3166 177.624C45.0985 177.451 44.9243 177.225 44.7941 176.945C44.6639 176.662 44.5988 176.315 44.5988 175.905H45.507C45.507 176.182 45.5461 176.411 45.6242 176.594C45.7056 176.773 45.813 176.916 45.9465 177.023C46.0799 177.128 46.2264 177.202 46.3859 177.248C46.5487 177.29 46.7098 177.312 46.8693 177.312C47.1623 177.312 47.4097 177.266 47.6115 177.175C47.8166 177.08 47.9729 176.947 48.0803 176.774C48.1877 176.602 48.2414 176.4 48.2414 176.169Z" fill="black"/>
</g>
<g filter="url(#filter11_d_1003_1642)">
<path d="M11.5957 53.249V54.2881H8.25977V53.249H11.5957ZM14.6248 53.249V54.2881H11.2889V53.249H14.6248ZM17.654 53.249V54.2881H14.318V53.249H17.654ZM20.6831 53.249V54.2881H17.3472V53.249H20.6831ZM23.7123 53.249V54.2881H20.3763V53.249H23.7123ZM33.967 56.9609V58H27.4523V57.0908L30.7131 53.4609C31.1141 53.0143 31.424 52.6361 31.6428 52.3262C31.8661 52.0117 32.021 51.7314 32.1076 51.4854C32.1988 51.2347 32.2443 50.9795 32.2443 50.7197C32.2443 50.3916 32.176 50.0954 32.0393 49.8311C31.9071 49.5622 31.7111 49.348 31.4514 49.1885C31.1916 49.029 30.8771 48.9492 30.508 48.9492C30.0659 48.9492 29.6968 49.0358 29.4006 49.209C29.1089 49.3776 28.8902 49.6146 28.7443 49.9199C28.5985 50.2253 28.5256 50.5762 28.5256 50.9727H27.2609C27.2609 50.4121 27.384 49.8994 27.6301 49.4346C27.8762 48.9697 28.2408 48.6006 28.7238 48.3271C29.2069 48.0492 29.8016 47.9102 30.508 47.9102C31.1369 47.9102 31.6747 48.0218 32.1213 48.2451C32.5679 48.4639 32.9097 48.7738 33.1467 49.1748C33.3882 49.5713 33.509 50.0361 33.509 50.5693C33.509 50.861 33.4589 51.1572 33.3586 51.458C33.2629 51.7542 33.1284 52.0505 32.9553 52.3467C32.7867 52.6429 32.5884 52.9346 32.3605 53.2217C32.1372 53.5088 31.898 53.7913 31.6428 54.0693L28.9768 56.9609H33.967ZM36.7287 47.5V58H35.4572V47.5H36.7287ZM41.2473 50.6035L38.0207 54.0557L36.216 55.9287L36.1135 54.582L37.4055 53.0371L39.7023 50.6035H41.2473ZM40.092 58L37.4533 54.4727L38.1096 53.3447L41.5822 58H40.092ZM48.3527 49.7383V51.2275H47.6203V49.7383H48.3527ZM48.2648 57.7119V59.0156H47.5373V57.7119H48.2648ZM49.2414 56.1689C49.2414 55.9736 49.1975 55.7979 49.1096 55.6416C49.0217 55.4854 48.8768 55.3421 48.675 55.2119C48.4732 55.0817 48.203 54.9613 47.8645 54.8506C47.4543 54.7236 47.0995 54.569 46.8 54.3867C46.5038 54.2044 46.2743 53.9782 46.1115 53.708C45.952 53.4378 45.8723 53.1107 45.8723 52.7266C45.8723 52.3262 45.9585 51.9811 46.1311 51.6914C46.3036 51.4017 46.5477 51.1787 46.8635 51.0225C47.1792 50.8662 47.5503 50.7881 47.9768 50.7881C48.3088 50.7881 48.605 50.8385 48.8654 50.9395C49.1258 51.0371 49.3456 51.1836 49.5246 51.3789C49.7069 51.5742 49.8452 51.8135 49.9396 52.0967C50.0373 52.3799 50.0861 52.707 50.0861 53.0781H49.1877C49.1877 52.86 49.1617 52.6598 49.1096 52.4775C49.0575 52.2952 48.9794 52.1374 48.8752 52.0039C48.771 51.8672 48.6441 51.763 48.4943 51.6914C48.3446 51.6165 48.1721 51.5791 47.9768 51.5791C47.7033 51.5791 47.4771 51.6263 47.298 51.7207C47.1223 51.8151 46.9921 51.9486 46.9074 52.1211C46.8228 52.2904 46.7805 52.4873 46.7805 52.7119C46.7805 52.9202 46.8228 53.1025 46.9074 53.2588C46.9921 53.415 47.1353 53.5566 47.3371 53.6836C47.5422 53.8073 47.8238 53.9294 48.1818 54.0498C48.6018 54.1833 48.9582 54.3411 49.2512 54.5234C49.5441 54.7025 49.7671 54.9238 49.9201 55.1875C50.0731 55.4479 50.1496 55.7718 50.1496 56.1592C50.1496 56.5791 50.0552 56.9339 49.8664 57.2236C49.6776 57.5101 49.4123 57.7282 49.0705 57.8779C48.7287 58.0277 48.3283 58.1025 47.8693 58.1025C47.5926 58.1025 47.3192 58.0651 47.049 57.9902C46.7788 57.9154 46.5347 57.7933 46.3166 57.624C46.0985 57.4515 45.9243 57.2253 45.7941 56.9453C45.6639 56.6621 45.5988 56.3154 45.5988 55.9053H46.507C46.507 56.182 46.5461 56.4115 46.6242 56.5938C46.7056 56.7728 46.813 56.916 46.9465 57.0234C47.0799 57.1276 47.2264 57.2025 47.3859 57.248C47.5487 57.2904 47.7098 57.3115 47.8693 57.3115C48.1623 57.3115 48.4097 57.266 48.6115 57.1748C48.8166 57.0804 48.9729 56.9469 49.0803 56.7744C49.1877 56.6019 49.2414 56.4001 49.2414 56.1689Z" fill="black"/>
</g>
<g filter="url(#filter12_d_1003_1642)">
<path d="M11.5957 113.249V114.288H8.25977V113.249H11.5957ZM14.6248 113.249V114.288H11.2889V113.249H14.6248ZM17.654 113.249V114.288H14.318V113.249H17.654ZM20.6831 113.249V114.288H17.3472V113.249H20.6831ZM23.7123 113.249V114.288H20.3763V113.249H23.7123ZM30.5339 110.137V118H29.5402V111.377L27.5368 112.108V111.211L30.3781 110.137H30.5339ZM33.5793 117.474C33.5793 117.305 33.6312 117.164 33.7351 117.049C33.8425 116.931 33.9965 116.872 34.197 116.872C34.3975 116.872 34.5497 116.931 34.6535 117.049C34.7609 117.164 34.8146 117.305 34.8146 117.474C34.8146 117.638 34.7609 117.778 34.6535 117.893C34.5497 118.007 34.3975 118.064 34.197 118.064C33.9965 118.064 33.8425 118.007 33.7351 117.893C33.6312 117.778 33.5793 117.638 33.5793 117.474ZM37.613 114.278L36.8181 114.074L37.2102 110.18H41.2224V111.098H38.0534L37.8171 113.225C37.9603 113.143 38.1411 113.066 38.3596 112.994C38.5816 112.923 38.8358 112.887 39.1223 112.887C39.4839 112.887 39.808 112.949 40.0944 113.075C40.3809 113.196 40.6244 113.372 40.8249 113.601C41.029 113.83 41.1848 114.106 41.2922 114.428C41.3996 114.75 41.4533 115.11 41.4533 115.508C41.4533 115.884 41.4014 116.229 41.2976 116.544C41.1973 116.86 41.0451 117.135 40.841 117.372C40.6369 117.604 40.3791 117.785 40.0676 117.914C39.7596 118.043 39.3962 118.107 38.9772 118.107C38.6621 118.107 38.3632 118.064 38.0803 117.979C37.801 117.889 37.5503 117.755 37.3283 117.576C37.1099 117.393 36.9309 117.167 36.7912 116.899C36.6551 116.627 36.5692 116.308 36.5334 115.943H37.4787C37.5217 116.236 37.6076 116.484 37.7365 116.684C37.8654 116.885 38.0337 117.037 38.2414 117.141C38.4527 117.241 38.6979 117.291 38.9772 117.291C39.2136 117.291 39.423 117.25 39.6057 117.167C39.7883 117.085 39.9423 116.967 40.0676 116.813C40.1929 116.659 40.2878 116.473 40.3522 116.254C40.4203 116.036 40.4543 115.791 40.4543 115.519C40.4543 115.271 40.4203 115.042 40.3522 114.831C40.2842 114.62 40.1822 114.435 40.0461 114.278C39.9136 114.12 39.7507 113.999 39.5573 113.913C39.364 113.823 39.142 113.778 38.8913 113.778C38.5583 113.778 38.3059 113.823 38.134 113.913C37.9657 114.002 37.792 114.124 37.613 114.278ZM43.6501 109.75V118H42.6511V109.75H43.6501ZM47.2004 112.188L44.6652 114.901L43.2473 116.373L43.1667 115.314L44.1818 114.101L45.9865 112.188H47.2004ZM46.2927 118L44.2194 115.229L44.7351 114.342L47.4636 118H46.2927ZM53.4885 109.738V111.228H52.7561V109.738H53.4885ZM53.4006 117.712V119.016H52.673V117.712H53.4006ZM54.3771 116.169C54.3771 115.974 54.3332 115.798 54.2453 115.642C54.1574 115.485 54.0126 115.342 53.8107 115.212C53.6089 115.082 53.3387 114.961 53.0002 114.851C52.59 114.724 52.2352 114.569 51.9357 114.387C51.6395 114.204 51.41 113.978 51.2473 113.708C51.0878 113.438 51.008 113.111 51.008 112.727C51.008 112.326 51.0943 111.981 51.2668 111.691C51.4393 111.402 51.6835 111.179 51.9992 111.022C52.315 110.866 52.6861 110.788 53.1125 110.788C53.4445 110.788 53.7408 110.839 54.0012 110.939C54.2616 111.037 54.4813 111.184 54.6604 111.379C54.8426 111.574 54.981 111.813 55.0754 112.097C55.173 112.38 55.2219 112.707 55.2219 113.078H54.3234C54.3234 112.86 54.2974 112.66 54.2453 112.478C54.1932 112.295 54.1151 112.137 54.0109 112.004C53.9068 111.867 53.7798 111.763 53.6301 111.691C53.4803 111.617 53.3078 111.579 53.1125 111.579C52.8391 111.579 52.6128 111.626 52.4338 111.721C52.258 111.815 52.1278 111.949 52.0432 112.121C51.9585 112.29 51.9162 112.487 51.9162 112.712C51.9162 112.92 51.9585 113.103 52.0432 113.259C52.1278 113.415 52.271 113.557 52.4729 113.684C52.6779 113.807 52.9595 113.929 53.3176 114.05C53.7375 114.183 54.0939 114.341 54.3869 114.523C54.6799 114.702 54.9029 114.924 55.0559 115.188C55.2089 115.448 55.2854 115.772 55.2854 116.159C55.2854 116.579 55.1909 116.934 55.0021 117.224C54.8133 117.51 54.548 117.728 54.2062 117.878C53.8645 118.028 53.4641 118.103 53.0051 118.103C52.7284 118.103 52.4549 118.065 52.1848 117.99C51.9146 117.915 51.6704 117.793 51.4523 117.624C51.2342 117.451 51.0601 117.225 50.9299 116.945C50.7997 116.662 50.7346 116.315 50.7346 115.905H51.6428C51.6428 116.182 51.6818 116.411 51.76 116.594C51.8413 116.773 51.9488 116.916 52.0822 117.023C52.2157 117.128 52.3622 117.202 52.5217 117.248C52.6844 117.29 52.8456 117.312 53.0051 117.312C53.298 117.312 53.5454 117.266 53.7473 117.175C53.9523 117.08 54.1086 116.947 54.216 116.774C54.3234 116.602 54.3771 116.4 54.3771 116.169Z" fill="black"/>
</g>
<g filter="url(#filter13_d_1003_1642)">
<path d="M10.5957 233.249V234.288H7.25977V233.249H10.5957ZM13.6248 233.249V234.288H10.2889V233.249H13.6248ZM16.654 233.249V234.288H13.318V233.249H16.654ZM19.6831 233.249V234.288H16.3472V233.249H19.6831ZM22.7123 233.249V234.288H19.3763V233.249H22.7123ZM31.1774 233.467V234.659C31.1774 235.3 31.1201 235.841 31.0056 236.281C30.891 236.722 30.7263 237.076 30.5114 237.345C30.2966 237.613 30.037 237.808 29.7326 237.93C29.4318 238.048 29.0917 238.107 28.7121 238.107C28.4113 238.107 28.1338 238.07 27.8796 237.995C27.6254 237.919 27.3962 237.799 27.1921 237.635C26.9916 237.466 26.8197 237.248 26.6765 236.979C26.5332 236.711 26.424 236.385 26.3488 236.002C26.2736 235.619 26.236 235.171 26.236 234.659V233.467C26.236 232.826 26.2933 232.289 26.4079 231.855C26.5261 231.422 26.6926 231.075 26.9074 230.813C27.1223 230.549 27.3801 230.359 27.6809 230.244C27.9852 230.13 28.3254 230.072 28.7014 230.072C29.0057 230.072 29.285 230.11 29.5393 230.185C29.7971 230.257 30.0262 230.373 30.2268 230.534C30.4273 230.692 30.5974 230.903 30.737 231.168C30.8802 231.429 30.9895 231.75 31.0646 232.129C31.1398 232.509 31.1774 232.955 31.1774 233.467ZM30.1784 234.82V233.3C30.1784 232.949 30.1569 232.641 30.114 232.376C30.0746 232.108 30.0155 231.879 29.9367 231.689C29.8579 231.499 29.7577 231.345 29.6359 231.227C29.5178 231.109 29.3799 231.023 29.2224 230.969C29.0684 230.912 28.8947 230.883 28.7014 230.883C28.465 230.883 28.2556 230.928 28.0729 231.018C27.8903 231.104 27.7364 231.241 27.611 231.431C27.4893 231.621 27.3962 231.87 27.3317 232.178C27.2673 232.486 27.2351 232.86 27.2351 233.3V234.82C27.2351 235.171 27.2548 235.481 27.2941 235.75C27.3371 236.018 27.3998 236.251 27.4821 236.448C27.5645 236.641 27.6647 236.8 27.7829 236.926C27.9011 237.051 28.0371 237.144 28.1911 237.205C28.3487 237.262 28.5223 237.291 28.7121 237.291C28.9556 237.291 29.1687 237.244 29.3513 237.151C29.5339 237.058 29.6861 236.913 29.8078 236.716C29.9331 236.516 30.0262 236.26 30.0871 235.948C30.148 235.633 30.1784 235.257 30.1784 234.82ZM32.5793 237.474C32.5793 237.305 32.6312 237.164 32.7351 237.049C32.8425 236.931 32.9965 236.872 33.197 236.872C33.3975 236.872 33.5497 236.931 33.6535 237.049C33.7609 237.164 33.8146 237.305 33.8146 237.474C33.8146 237.638 33.7609 237.778 33.6535 237.893C33.5497 238.007 33.3975 238.064 33.197 238.064C32.9965 238.064 32.8425 238.007 32.7351 237.893C32.6312 237.778 32.5793 237.638 32.5793 237.474ZM36.613 234.278L35.8181 234.074L36.2102 230.18H40.2224V231.098H37.0534L36.8171 233.225C36.9603 233.143 37.1411 233.066 37.3596 232.994C37.5816 232.923 37.8358 232.887 38.1223 232.887C38.4839 232.887 38.808 232.949 39.0944 233.075C39.3809 233.196 39.6244 233.372 39.8249 233.601C40.029 233.83 40.1848 234.106 40.2922 234.428C40.3996 234.75 40.4533 235.11 40.4533 235.508C40.4533 235.884 40.4014 236.229 40.2976 236.544C40.1973 236.86 40.0451 237.135 39.841 237.372C39.6369 237.604 39.3791 237.785 39.0676 237.914C38.7596 238.043 38.3962 238.107 37.9772 238.107C37.6621 238.107 37.3632 238.064 37.0803 237.979C36.801 237.889 36.5503 237.755 36.3283 237.576C36.1099 237.393 35.9309 237.167 35.7912 236.899C35.6551 236.627 35.5692 236.308 35.5334 235.943H36.4787C36.5217 236.236 36.6076 236.484 36.7365 236.684C36.8654 236.885 37.0337 237.037 37.2414 237.141C37.4527 237.241 37.6979 237.291 37.9772 237.291C38.2136 237.291 38.423 237.25 38.6057 237.167C38.7883 237.085 38.9423 236.967 39.0676 236.813C39.1929 236.659 39.2878 236.473 39.3522 236.254C39.4203 236.036 39.4543 235.791 39.4543 235.519C39.4543 235.271 39.4203 235.042 39.3522 234.831C39.2842 234.62 39.1822 234.435 39.0461 234.278C38.9136 234.12 38.7507 233.999 38.5573 233.913C38.364 233.823 38.142 233.778 37.8913 233.778C37.5583 233.778 37.3059 233.823 37.134 233.913C36.9657 234.002 36.792 234.124 36.613 234.278ZM42.6501 229.75V238H41.6511V229.75H42.6501ZM46.2004 232.188L43.6652 234.901L42.2473 236.373L42.1667 235.314L43.1818 234.101L44.9865 232.188H46.2004ZM45.2927 238L43.2194 235.229L43.7351 234.342L46.4636 238H45.2927ZM52.4885 229.738V231.228H51.7561V229.738H52.4885ZM52.4006 237.712V239.016H51.673V237.712H52.4006ZM53.3771 236.169C53.3771 235.974 53.3332 235.798 53.2453 235.642C53.1574 235.485 53.0126 235.342 52.8107 235.212C52.6089 235.082 52.3387 234.961 52.0002 234.851C51.59 234.724 51.2352 234.569 50.9357 234.387C50.6395 234.204 50.41 233.978 50.2473 233.708C50.0878 233.438 50.008 233.111 50.008 232.727C50.008 232.326 50.0943 231.981 50.2668 231.691C50.4393 231.402 50.6835 231.179 50.9992 231.022C51.315 230.866 51.6861 230.788 52.1125 230.788C52.4445 230.788 52.7408 230.839 53.0012 230.939C53.2616 231.037 53.4813 231.184 53.6604 231.379C53.8426 231.574 53.981 231.813 54.0754 232.097C54.173 232.38 54.2219 232.707 54.2219 233.078H53.3234C53.3234 232.86 53.2974 232.66 53.2453 232.478C53.1932 232.295 53.1151 232.137 53.0109 232.004C52.9068 231.867 52.7798 231.763 52.6301 231.691C52.4803 231.617 52.3078 231.579 52.1125 231.579C51.8391 231.579 51.6128 231.626 51.4338 231.721C51.258 231.815 51.1278 231.949 51.0432 232.121C50.9585 232.29 50.9162 232.487 50.9162 232.712C50.9162 232.92 50.9585 233.103 51.0432 233.259C51.1278 233.415 51.271 233.557 51.4729 233.684C51.6779 233.807 51.9595 233.929 52.3176 234.05C52.7375 234.183 53.0939 234.341 53.3869 234.523C53.6799 234.702 53.9029 234.924 54.0559 235.188C54.2089 235.448 54.2854 235.772 54.2854 236.159C54.2854 236.579 54.1909 236.934 54.0021 237.224C53.8133 237.51 53.548 237.728 53.2062 237.878C52.8645 238.028 52.4641 238.103 52.0051 238.103C51.7284 238.103 51.4549 238.065 51.1848 237.99C50.9146 237.915 50.6704 237.793 50.4523 237.624C50.2342 237.451 50.0601 237.225 49.9299 236.945C49.7997 236.662 49.7346 236.315 49.7346 235.905H50.6428C50.6428 236.182 50.6818 236.411 50.76 236.594C50.8413 236.773 50.9488 236.916 51.0822 237.023C51.2157 237.128 51.3622 237.202 51.5217 237.248C51.6844 237.29 51.8456 237.312 52.0051 237.312C52.298 237.312 52.5454 237.266 52.7473 237.175C52.9523 237.08 53.1086 236.947 53.216 236.774C53.3234 236.602 53.3771 236.4 53.3771 236.169Z" fill="black"/>
</g>
</g>
<path d="M7 284C7 284.552 7.44772 285 8 285C8.55228 285 9 284.552 9 284L7 284ZM8.70711 37.2929C8.31658 36.9024 7.68342 36.9024 7.29289 37.2929L0.928932 43.6569C0.538408 44.0474 0.538408 44.6805 0.928932 45.0711C1.31946 45.4616 1.95262 45.4616 2.34315 45.0711L8 39.4142L13.6569 45.0711C14.0474 45.4616 14.6805 45.4616 15.0711 45.0711C15.4616 44.6805 15.4616 44.0474 15.0711 43.6569L8.70711 37.2929ZM9 284L9 38L7 38L7 284L9 284Z" fill="#393431"/>
<path d="M856.417 224.912L841.923 220.439C840.246 219.928 839.115 218.406 839.167 216.757C839.233 214.689 841.073 213.07 843.28 213.14L852.255 213.425C853.907 213.477 855.516 213.998 856.843 214.904C857.652 215.451 858.766 215.359 859.491 214.734L864.339 210.569C865.328 209.724 865.238 208.261 864.194 207.453C860.954 204.911 856.855 203.422 852.604 203.275L852.797 197.184C852.833 196.067 851.887 195.123 850.696 195.085L846.364 194.948C845.172 194.91 844.169 195.793 844.133 196.909L843.94 203L843.601 202.989C834.978 202.716 827.826 209.437 828.364 217.697C828.747 223.565 833.362 228.474 839.32 230.314L853.075 234.561C854.753 235.084 855.884 236.594 855.832 238.243C855.766 240.311 853.926 241.93 851.719 241.86L842.744 241.575C841.092 241.523 839.482 241.002 838.156 240.096C837.347 239.55 836.233 239.641 835.508 240.266L830.66 244.431C829.671 245.276 829.76 246.739 830.805 247.547C834.045 250.089 838.144 251.578 842.395 251.725L842.202 257.816C842.166 258.933 843.112 259.877 844.303 259.915L848.635 260.052C849.827 260.09 850.83 259.208 850.866 258.091L851.06 251.975C857.372 252.061 863.399 248.733 865.662 243.204C868.82 235.48 864.187 227.305 856.417 224.912V224.912Z" fill="black" fill-opacity="0.1"/>
<path d="M889.707 284.707C890.098 284.317 890.098 283.683 889.707 283.293L883.343 276.929C882.953 276.538 882.319 276.538 881.929 276.929C881.538 277.319 881.538 277.953 881.929 278.343L887.586 284L881.929 289.657C881.538 290.047 881.538 290.681 881.929 291.071C882.319 291.462 882.953 291.462 883.343 291.071L889.707 284.707ZM8 285H889V283H8V285Z" fill="#393431"/>
<defs>
<filter id="filter0_d_1003_1642" x="-2.30399" y="39.0541" width="911.158" height="257.44" filterUnits="userSpaceOnUse" color-interpolation-filters="sRGB">
<feFlood flood-opacity="0" result="BackgroundImageFix"/>
<feColorMatrix in="SourceAlpha" type="matrix" values="0 0 0 0 0 0 0 0 0 0 0 0 0 0 0 0 0 0 127 0" result="hardAlpha"/>
<feOffset dy="2"/>
<feGaussianBlur stdDeviation="4.5"/>
<feComposite in2="hardAlpha" operator="out"/>
<feColorMatrix type="matrix" values="0 0 0 0 0 0 0 0 0 0 0 0 0 0 0 0 0 0 0.25 0"/>
<feBlend mode="normal" in2="BackgroundImageFix" result="effect1_dropShadow_1003_1642"/>
<feBlend mode="normal" in="SourceGraphic" in2="effect1_dropShadow_1003_1642" result="shape"/>
</filter>
<filter id="filter1_d_1003_1642" x="126.962" y="64" width="11.0557" height="11" filterUnits="userSpaceOnUse" color-interpolation-filters="sRGB">
<feFlood flood-opacity="0" result="BackgroundImageFix"/>
<feColorMatrix in="SourceAlpha" type="matrix" values="0 0 0 0 0 0 0 0 0 0 0 0 0 0 0 0 0 0 127 0" result="hardAlpha"/>
<feOffset/>
<feGaussianBlur stdDeviation="1"/>
<feComposite in2="hardAlpha" operator="out"/>
<feColorMatrix type="matrix" values="0 0 0 0 0 0 0 0 0 0 0 0 0 0 0 0 0 0 0.25 0"/>
<feBlend mode="normal" in2="BackgroundImageFix" result="effect1_dropShadow_1003_1642"/>
<feBlend mode="normal" in="SourceGraphic" in2="effect1_dropShadow_1003_1642" result="shape"/>
</filter>
<filter id="filter2_d_1003_1642" x="49.3498" y="140" width="11.0557" height="11" filterUnits="userSpaceOnUse" color-interpolation-filters="sRGB">
<feFlood flood-opacity="0" result="BackgroundImageFix"/>
<feColorMatrix in="SourceAlpha" type="matrix" values="0 0 0 0 0 0 0 0 0 0 0 0 0 0 0 0 0 0 127 0" result="hardAlpha"/>
<feOffset/>
<feGaussianBlur stdDeviation="1"/>
<feComposite in2="hardAlpha" operator="out"/>
<feColorMatrix type="matrix" values="0 0 0 0 0 0 0 0 0 0 0 0 0 0 0 0 0 0 0.25 0"/>
<feBlend mode="normal" in2="BackgroundImageFix" result="effect1_dropShadow_1003_1642"/>
<feBlend mode="normal" in="SourceGraphic" in2="effect1_dropShadow_1003_1642" result="shape"/>
</filter>
<filter id="filter3_d_1003_1642" x="293.275" y="116" width="11.0557" height="11" filterUnits="userSpaceOnUse" color-interpolation-filters="sRGB">
<feFlood flood-opacity="0" result="BackgroundImageFix"/>
<feColorMatrix in="SourceAlpha" type="matrix" values="0 0 0 0 0 0 0 0 0 0 0 0 0 0 0 0 0 0 127 0" result="hardAlpha"/>
<feOffset/>
<feGaussianBlur stdDeviation="1"/>
<feComposite in2="hardAlpha" operator="out"/>
<feColorMatrix type="matrix" values="0 0 0 0 0 0 0 0 0 0 0 0 0 0 0 0 0 0 0.25 0"/>
<feBlend mode="normal" in2="BackgroundImageFix" result="effect1_dropShadow_1003_1642"/>
<feBlend mode="normal" in="SourceGraphic" in2="effect1_dropShadow_1003_1642" result="shape"/>
</filter>
<filter id="filter4_d_1003_1642" x="372.903" y="41" width="11.0557" height="11" filterUnits="userSpaceOnUse" color-interpolation-filters="sRGB">
<feFlood flood-opacity="0" result="BackgroundImageFix"/>
<feColorMatrix in="SourceAlpha" type="matrix" values="0 0 0 0 0 0 0 0 0 0 0 0 0 0 0 0 0 0 127 0" result="hardAlpha"/>
<feOffset/>
<feGaussianBlur stdDeviation="1"/>
<feComposite in2="hardAlpha" operator="out"/>
<feColorMatrix type="matrix" values="0 0 0 0 0 0 0 0 0 0 0 0 0 0 0 0 0 0 0.25 0"/>
<feBlend mode="normal" in2="BackgroundImageFix" result="effect1_dropShadow_1003_1642"/>
<feBlend mode="normal" in="SourceGraphic" in2="effect1_dropShadow_1003_1642" result="shape"/>
</filter>
<filter id="filter5_d_1003_1642" x="541.232" y="59" width="11.0557" height="11" filterUnits="userSpaceOnUse" color-interpolation-filters="sRGB">
<feFlood flood-opacity="0" result="BackgroundImageFix"/>
<feColorMatrix in="SourceAlpha" type="matrix" values="0 0 0 0 0 0 0 0 0 0 0 0 0 0 0 0 0 0 127 0" result="hardAlpha"/>
<feOffset/>
<feGaussianBlur stdDeviation="1"/>
<feComposite in2="hardAlpha" operator="out"/>
<feColorMatrix type="matrix" values="0 0 0 0 0 0 0 0 0 0 0 0 0 0 0 0 0 0 0.25 0"/>
<feBlend mode="normal" in2="BackgroundImageFix" result="effect1_dropShadow_1003_1642"/>
<feBlend mode="normal" in="SourceGraphic" in2="effect1_dropShadow_1003_1642" result="shape"/>
</filter>
<filter id="filter6_d_1003_1642" x="475.715" y="67" width="11.0557" height="11" filterUnits="userSpaceOnUse" color-interpolation-filters="sRGB">
<feFlood flood-opacity="0" result="BackgroundImageFix"/>
<feColorMatrix in="SourceAlpha" type="matrix" values="0 0 0 0 0 0 0 0 0 0 0 0 0 0 0 0 0 0 127 0" result="hardAlpha"/>
<feOffset/>
<feGaussianBlur stdDeviation="1"/>
<feComposite in2="hardAlpha" operator="out"/>
<feColorMatrix type="matrix" values="0 0 0 0 0 0 0 0 0 0 0 0 0 0 0 0 0 0 0.25 0"/>
<feBlend mode="normal" in2="BackgroundImageFix" result="effect1_dropShadow_1003_1642"/>
<feBlend mode="normal" in="SourceGraphic" in2="effect1_dropShadow_1003_1642" result="shape"/>
</filter>
<filter id="filter7_d_1003_1642" x="635.979" y="168" width="11.0557" height="11" filterUnits="userSpaceOnUse" color-interpolation-filters="sRGB">
<feFlood flood-opacity="0" result="BackgroundImageFix"/>
<feColorMatrix in="SourceAlpha" type="matrix" values="0 0 0 0 0 0 0 0 0 0 0 0 0 0 0 0 0 0 127 0" result="hardAlpha"/>
<feOffset/>
<feGaussianBlur stdDeviation="1"/>
<feComposite in2="hardAlpha" operator="out"/>
<feColorMatrix type="matrix" values="0 0 0 0 0 0 0 0 0 0 0 0 0 0 0 0 0 0 0.25 0"/>
<feBlend mode="normal" in2="BackgroundImageFix" result="effect1_dropShadow_1003_1642"/>
<feBlend mode="normal" in="SourceGraphic" in2="effect1_dropShadow_1003_1642" result="shape"/>
</filter>
<filter id="filter8_d_1003_1642" x="760.966" y="155" width="11.0557" height="11" filterUnits="userSpaceOnUse" color-interpolation-filters="sRGB">
<feFlood flood-opacity="0" result="BackgroundImageFix"/>
<feColorMatrix in="SourceAlpha" type="matrix" values="0 0 0 0 0 0 0 0 0 0 0 0 0 0 0 0 0 0 127 0" result="hardAlpha"/>
<feOffset/>
<feGaussianBlur stdDeviation="1"/>
<feComposite in2="hardAlpha" operator="out"/>
<feColorMatrix type="matrix" values="0 0 0 0 0 0 0 0 0 0 0 0 0 0 0 0 0 0 0.25 0"/>
<feBlend mode="normal" in2="BackgroundImageFix" result="effect1_dropShadow_1003_1642"/>
<feBlend mode="normal" in="SourceGraphic" in2="effect1_dropShadow_1003_1642" result="shape"/>
</filter>
<filter id="filter9_d_1003_1642" x="810.355" y="112" width="11.0557" height="11" filterUnits="userSpaceOnUse" color-interpolation-filters="sRGB">
<feFlood flood-opacity="0" result="BackgroundImageFix"/>
<feColorMatrix in="SourceAlpha" type="matrix" values="0 0 0 0 0 0 0 0 0 0 0 0 0 0 0 0 0 0 127 0" result="hardAlpha"/>
<feOffset/>
<feGaussianBlur stdDeviation="1"/>
<feComposite in2="hardAlpha" operator="out"/>
<feColorMatrix type="matrix" values="0 0 0 0 0 0 0 0 0 0 0 0 0 0 0 0 0 0 0.25 0"/>
<feBlend mode="normal" in2="BackgroundImageFix" result="effect1_dropShadow_1003_1642"/>
<feBlend mode="normal" in="SourceGraphic" in2="effect1_dropShadow_1003_1642" result="shape"/>
</filter>
<filter id="filter10_d_1003_1642" x="5.25977" y="165.5" width="45.8898" height="15.5156" filterUnits="userSpaceOnUse" color-interpolation-filters="sRGB">
<feFlood flood-opacity="0" result="BackgroundImageFix"/>
<feColorMatrix in="SourceAlpha" type="matrix" values="0 0 0 0 0 0 0 0 0 0 0 0 0 0 0 0 0 0 127 0" result="hardAlpha"/>
<feOffset/>
<feGaussianBlur stdDeviation="1"/>
<feComposite in2="hardAlpha" operator="out"/>
<feColorMatrix type="matrix" values="0 0 0 0 0 0 0 0 0 0 0 0 0 0 0 0 0 0 0.23 0"/>
<feBlend mode="normal" in2="BackgroundImageFix" result="effect1_dropShadow_1003_1642"/>
<feBlend mode="normal" in="SourceGraphic" in2="effect1_dropShadow_1003_1642" result="shape"/>
</filter>
<filter id="filter11_d_1003_1642" x="6.25977" y="45.5" width="45.8898" height="15.5156" filterUnits="userSpaceOnUse" color-interpolation-filters="sRGB">
<feFlood flood-opacity="0" result="BackgroundImageFix"/>
<feColorMatrix in="SourceAlpha" type="matrix" values="0 0 0 0 0 0 0 0 0 0 0 0 0 0 0 0 0 0 127 0" result="hardAlpha"/>
<feOffset/>
<feGaussianBlur stdDeviation="1"/>
<feComposite in2="hardAlpha" operator="out"/>
<feColorMatrix type="matrix" values="0 0 0 0 0 0 0 0 0 0 0 0 0 0 0 0 0 0 0.23 0"/>
<feBlend mode="normal" in2="BackgroundImageFix" result="effect1_dropShadow_1003_1642"/>
<feBlend mode="normal" in="SourceGraphic" in2="effect1_dropShadow_1003_1642" result="shape"/>
</filter>
<filter id="filter12_d_1003_1642" x="6.25977" y="107.738" width="51.0256" height="13.2773" filterUnits="userSpaceOnUse" color-interpolation-filters="sRGB">
<feFlood flood-opacity="0" result="BackgroundImageFix"/>
<feColorMatrix in="SourceAlpha" type="matrix" values="0 0 0 0 0 0 0 0 0 0 0 0 0 0 0 0 0 0 127 0" result="hardAlpha"/>
<feOffset/>
<feGaussianBlur stdDeviation="1"/>
<feComposite in2="hardAlpha" operator="out"/>
<feColorMatrix type="matrix" values="0 0 0 0 0 0 0 0 0 0 0 0 0 0 0 0 0 0 0.23 0"/>
<feBlend mode="normal" in2="BackgroundImageFix" result="effect1_dropShadow_1003_1642"/>
<feBlend mode="normal" in="SourceGraphic" in2="effect1_dropShadow_1003_1642" result="shape"/>
</filter>
<filter id="filter13_d_1003_1642" x="5.25977" y="227.738" width="51.0256" height="13.2773" filterUnits="userSpaceOnUse" color-interpolation-filters="sRGB">
<feFlood flood-opacity="0" result="BackgroundImageFix"/>
<feColorMatrix in="SourceAlpha" type="matrix" values="0 0 0 0 0 0 0 0 0 0 0 0 0 0 0 0 0 0 127 0" result="hardAlpha"/>
<feOffset/>
<feGaussianBlur stdDeviation="1"/>
<feComposite in2="hardAlpha" operator="out"/>
<feColorMatrix type="matrix" values="0 0 0 0 0 0 0 0 0 0 0 0 0 0 0 0 0 0 0.23 0"/>
<feBlend mode="normal" in2="BackgroundImageFix" result="effect1_dropShadow_1003_1642"/>
<feBlend mode="normal" in="SourceGraphic" in2="effect1_dropShadow_1003_1642" result="shape"/>
</filter>
<linearGradient id="paint0_linear_1003_1642" x1="451.256" y1="46" x2="451.256" y2="285" gradientUnits="userSpaceOnUse">
<stop stop-color="#D9D9D9" stop-opacity="0"/>
<stop offset="1" stop-color="#E6E0D8"/>
</linearGradient>
<clipPath id="clip0_1003_1642">
<rect width="886" height="285" fill="white" transform="translate(7)"/>
</clipPath>
</defs>
</svg>
