<svg width="163" height="53" viewBox="0 0 163 53" fill="none" xmlns="http://www.w3.org/2000/svg">
<path d="M10.52 23.6563L11.8173 16.896L12.2411 19.4257C12.3091 19.8303 13.6523 27.8488 13.6523 27.8488C13.8107 28.7939 14.6479 29.5541 15.7848 29.7855L22.6346 31.1794L15.7801 32.5742C14.6459 32.8049 13.8107 33.5649 13.6523 34.5103L11.8176 45.4627L9.9828 34.5107C9.8244 33.5653 8.98909 32.8054 7.85479 32.5745L1 31.1798L7.85515 29.7847C8.98909 29.5538 9.75595 28.2359 9.91423 27.2907" stroke="#1F1F1F" stroke-width="1.7569" stroke-miterlimit="10" stroke-linecap="round" stroke-linejoin="round"/>
<path d="M24.1826 12.4198L25.1196 7.53735L25.4257 9.36437C25.4747 9.65657 26.4449 15.4477 26.4449 15.4477C26.5594 16.1303 27.1639 16.6794 27.9851 16.8465L32.9321 17.8532L27.9816 18.8605C27.1624 19.0272 26.5592 19.576 26.4449 20.2588L25.1198 28.1689L23.7947 20.2591C23.6802 19.5763 23.077 19.0275 22.2578 18.8608L17.3071 17.8535L22.2581 16.8459C23.077 16.6792 23.6309 15.7273 23.7452 15.0447" stroke="#1F1F1F" stroke-width="1.7569" stroke-miterlimit="10" stroke-linecap="round" stroke-linejoin="round"/>
<path d="M31.0228 31.0867L31.77 27.1934L32.014 28.6503C32.0531 28.8833 32.8268 33.5012 32.8268 33.5012C32.918 34.0455 33.4001 34.4834 34.0549 34.6166L37.9998 35.4194L34.0522 36.2227C33.399 36.3556 32.9179 36.7932 32.8268 37.3377L31.7701 43.6454L30.7134 37.338C30.6221 36.7935 30.1411 36.3558 29.4879 36.2229L25.54 35.4197L29.488 34.6162C30.1411 34.4832 30.5827 33.7242 30.6739 33.1799" stroke="#1F1F1F" stroke-width="1.7569" stroke-miterlimit="10" stroke-linecap="round" stroke-linejoin="round"/>
<path d="M65.4961 20.5137C66.1289 19.9746 66.6152 19.3125 66.9551 18.5273C67.3066 17.7305 67.4824 16.834 67.4824 15.8379C67.4824 15.2988 67.4121 14.7891 67.2715 14.3086C67.1426 13.8281 66.9434 13.4121 66.6738 13.0605C66.416 12.6973 66.0938 12.4102 65.707 12.1992C65.332 11.9883 64.9043 11.8828 64.4238 11.8828C64.0137 11.8828 63.6211 11.9766 63.2461 12.1641C62.8828 12.3398 62.5605 12.6094 62.2793 12.9727C61.998 13.3242 61.7695 13.7754 61.5938 14.3262C61.4297 14.8652 61.3477 15.4922 61.3477 16.207C61.3477 16.9219 61.4004 17.7773 61.5059 18.7734C61.623 19.7578 61.752 20.8594 61.8926 22.0781C62.0332 23.2852 62.1562 24.5918 62.2617 25.998C62.3789 27.4043 62.4375 28.8809 62.4375 30.4277C62.4375 31.2246 62.3672 31.9805 62.2266 32.6953C62.0977 33.3984 61.9102 34.0547 61.6641 34.6641C61.418 35.2734 61.125 35.8359 60.7852 36.3516C60.457 36.8672 60.0938 37.3359 59.6953 37.7578C60.3516 38.0625 60.9961 38.3965 61.6289 38.7598C62.2734 39.123 62.9062 39.4922 63.5273 39.8672C64.1484 40.2305 64.7754 40.582 65.4082 40.9219C66.041 41.2734 66.6797 41.5781 67.3242 41.8359C67.9688 42.1055 68.6309 42.3223 69.3105 42.4863C69.9902 42.6504 70.6992 42.7324 71.4375 42.7324C72.832 42.7324 73.9102 42.5273 74.6719 42.1172L75.041 42.5918C74.7949 42.8027 74.4551 43.0254 74.0215 43.2598C73.5996 43.5059 73.1191 43.7285 72.5801 43.9277C72.0527 44.1387 71.4902 44.3086 70.8926 44.4375C70.2949 44.5781 69.6973 44.6484 69.0996 44.6484C67.8223 44.6484 66.6445 44.4668 65.5664 44.1035C64.4883 43.752 63.4922 43.3125 62.5781 42.7852C61.6641 42.2578 60.8145 41.6895 60.0293 41.0801C59.2441 40.4707 58.5 39.9082 57.7969 39.3926C57.1055 39.8262 56.4082 40.1484 55.7051 40.3594C55.0137 40.5703 54.375 40.6758 53.7891 40.6758C53.2969 40.6758 52.8867 40.6172 52.5586 40.5C52.2188 40.3711 51.9492 40.2129 51.75 40.0254C51.5391 39.8379 51.3926 39.627 51.3105 39.3926C51.2168 39.1582 51.1699 38.9297 51.1699 38.707C51.1699 38.4375 51.252 38.1738 51.416 37.916C51.5801 37.6582 51.8203 37.4297 52.1367 37.2305C52.4414 37.0195 52.8105 36.8555 53.2441 36.7383C53.6777 36.6094 54.1641 36.5449 54.7031 36.5449C55.3008 36.5449 55.875 36.5977 56.4258 36.7031C56.9883 36.8086 57.5391 36.9434 58.0781 37.1074C58.5117 36.4277 58.8633 35.5898 59.1328 34.5938C59.4141 33.5859 59.5547 32.373 59.5547 30.9551C59.5547 29.4082 59.4961 28.002 59.3789 26.7363C59.2734 25.459 59.1504 24.2637 59.0098 23.1504C58.8809 22.0254 58.7578 20.9473 58.6406 19.916C58.5352 18.873 58.4824 17.8125 58.4824 16.7344C58.4824 15.7852 58.6523 14.9531 58.9922 14.2383C59.3438 13.5117 59.7891 12.9082 60.3281 12.4277C60.8789 11.9473 61.4941 11.5898 62.1738 11.3555C62.8652 11.1094 63.5508 10.9863 64.2305 10.9863C64.9922 10.9863 65.6895 11.1035 66.3223 11.3379C66.9668 11.5723 67.5176 11.8945 67.9746 12.3047C68.4434 12.7031 68.8066 13.1777 69.0645 13.7285C69.3223 14.2676 69.4512 14.8535 69.4512 15.4863C69.4512 16.166 69.3398 16.8047 69.1172 17.4023C68.8945 17.9883 68.6133 18.5273 68.2734 19.0195C67.9453 19.5 67.582 19.9277 67.1836 20.3027C66.7852 20.6777 66.4043 20.9883 66.041 21.2344L65.4961 20.5137ZM53.7891 39.7793C54.2344 39.7793 54.7148 39.6973 55.2305 39.5332C55.7461 39.3574 56.25 39.0703 56.7422 38.6719C56.25 38.3672 55.7754 38.1152 55.3184 37.916C54.873 37.7168 54.4277 37.6172 53.9824 37.6172C53.4668 37.6172 53.0391 37.7109 52.6992 37.8984C52.3477 38.0742 52.1719 38.3438 52.1719 38.707C52.1719 39.0703 52.3184 39.3398 52.6113 39.5156C52.9043 39.6914 53.2969 39.7793 53.7891 39.7793ZM69.2754 32.7656L69.0996 33.1172L68.9238 33.4863L68.2031 32.9414L68.3789 32.5723C68.6719 31.9746 68.9121 31.377 69.0996 30.7793C69.2988 30.1699 69.457 29.6016 69.5742 29.0742C69.7031 28.5469 69.8086 28.084 69.8906 27.6855C69.9727 27.2871 70.0547 27 70.1367 26.8242C70.207 26.6836 70.3066 26.5723 70.4355 26.4902C70.5762 26.3965 70.7168 26.3203 70.8574 26.2617C71.0098 26.2031 71.1504 26.1621 71.2793 26.1387C71.4199 26.1152 71.5195 26.1035 71.5781 26.1035C71.8359 26.1035 72.0059 26.1562 72.0879 26.2617C72.1816 26.3672 72.2285 26.5547 72.2285 26.8242C72.2285 26.9531 72.1992 27.2754 72.1406 27.791C72.0938 28.2949 72.0352 28.9336 71.9648 29.707C71.9062 30.4688 71.8477 31.3301 71.7891 32.291C71.7422 33.2402 71.7188 34.2246 71.7188 35.2441C71.7188 35.9824 71.7539 36.5684 71.8242 37.002C71.8945 37.4238 71.9824 37.7402 72.0879 37.9512C72.2051 38.1621 72.3281 38.2969 72.457 38.3555C72.5977 38.4141 72.7383 38.4434 72.8789 38.4434C73.0664 38.4434 73.2773 38.3613 73.5117 38.1973C73.7461 38.0332 74.0215 37.7461 74.3379 37.3359C74.6543 36.9141 75.0176 36.3516 75.4277 35.6484C75.8379 34.9336 76.3184 34.0312 76.8691 32.9414L77.0625 32.5723L77.7832 33.1172L77.5898 33.4863C77.1445 34.3535 76.6992 35.209 76.2539 36.0527C75.8203 36.8965 75.375 37.6465 74.918 38.3027C74.4727 38.959 74.0215 39.4922 73.5645 39.9023C73.1074 40.3008 72.6504 40.5 72.1934 40.5C71.7129 40.5 71.2969 40.4062 70.9453 40.2188C70.6055 40.0195 70.3184 39.6973 70.084 39.252C69.8613 38.8066 69.6914 38.2207 69.5742 37.4941C69.4688 36.7559 69.416 35.8477 69.416 34.7695C69.416 34.4648 69.416 34.1484 69.416 33.8203C69.416 33.4805 69.4277 33.1289 69.4512 32.7656H69.2754ZM72.8789 22.5C72.8789 22.9102 72.7383 23.2559 72.457 23.5371C72.1875 23.8066 71.8477 23.9414 71.4375 23.9414C71.0391 23.9414 70.6992 23.8066 70.418 23.5371C70.1367 23.2559 69.9961 22.9102 69.9961 22.5C69.9961 22.1016 70.1367 21.7617 70.418 21.4805C70.6992 21.1992 71.0391 21.0586 71.4375 21.0586C71.8477 21.0586 72.1875 21.1992 72.457 21.4805C72.7383 21.7617 72.8789 22.1016 72.8789 22.5ZM82.793 27.3516C82.4531 27.3516 82.125 27.4746 81.8086 27.7207C81.5039 27.9551 81.2109 28.2832 80.9297 28.7051C80.6484 29.1152 80.373 29.6016 80.1035 30.1641C79.8457 30.7148 79.5879 31.3066 79.3301 31.9395V32.1504C79.2949 33.1816 79.2598 34.2773 79.2246 35.4375C79.2012 36.5977 79.1895 37.8633 79.1895 39.2344C79.1895 39.4688 79.1074 39.668 78.9434 39.832C78.791 39.9844 78.6094 40.1133 78.3984 40.2188C78.1875 40.3125 77.9707 40.3828 77.748 40.4297C77.5254 40.4766 77.3438 40.5 77.2031 40.5C77.0273 40.5 76.8633 40.4473 76.7109 40.3418C76.5586 40.2363 76.4824 40.002 76.4824 39.6387C76.4824 39.4629 76.5 39.2461 76.5352 38.9883C76.5703 38.7188 76.6172 38.4316 76.6758 38.127C76.7227 37.8223 76.7812 37.5117 76.8516 37.1953C76.9102 36.8672 76.9688 36.5625 77.0273 36.2812C77.0273 35.2852 77.0273 34.3887 77.0273 33.5918C77.0156 32.7949 77.0098 32.0859 77.0098 31.4648C77.0098 30.8438 77.0098 30.2988 77.0098 29.8301C76.998 29.3613 76.9922 28.957 76.9922 28.6172C76.9922 28.0547 77.0039 27.6445 77.0273 27.3867C77.0391 27.1172 77.0625 26.9297 77.0977 26.8242C77.1562 26.6602 77.2617 26.5312 77.4141 26.4375C77.5781 26.3438 77.748 26.2734 77.9238 26.2266C78.0996 26.168 78.2754 26.1328 78.4512 26.1211C78.627 26.1094 78.7617 26.1035 78.8555 26.1035C79.0781 26.1035 79.2246 26.168 79.2949 26.2969C79.3652 26.4258 79.4004 26.625 79.4004 26.8945C79.4004 27.5039 79.4004 28.0547 79.4004 28.5469C79.4004 29.0391 79.3887 29.5312 79.3652 30.0234C79.5879 29.4961 79.8457 28.998 80.1387 28.5293C80.4434 28.0488 80.7773 27.6328 81.1406 27.2812C81.5039 26.918 81.8848 26.6309 82.2832 26.4199C82.6934 26.209 83.1152 26.1035 83.5488 26.1035C84.0762 26.1035 84.5098 26.2148 84.8496 26.4375C85.2012 26.6484 85.4766 26.9473 85.6758 27.334C85.8867 27.7207 86.0391 28.1777 86.1328 28.7051C86.2383 29.2207 86.3086 29.7832 86.3438 30.3926C86.6719 29.7949 87.0234 29.2383 87.3984 28.7227C87.7852 28.1953 88.1895 27.7383 88.6113 27.3516C89.0449 26.9648 89.4961 26.6602 89.9648 26.4375C90.4453 26.2148 90.9434 26.1035 91.459 26.1035C92.3496 26.1035 93 26.3848 93.4102 26.9473C93.8203 27.498 94.0254 28.248 94.0254 29.1973C94.0254 29.7949 93.9785 30.4629 93.8848 31.2012C93.791 31.9395 93.6914 32.6895 93.5859 33.4512C93.4805 34.2012 93.3809 34.9395 93.2871 35.666C93.1934 36.3926 93.1465 37.0547 93.1465 37.6523C93.1465 38.3789 93.3281 38.7422 93.6914 38.7422C93.8789 38.7422 94.084 38.6309 94.3066 38.4082C94.5293 38.1738 94.7812 37.8223 95.0625 37.3535C95.3555 36.873 95.6895 36.2695 96.0645 35.543C96.4512 34.8164 96.8965 33.9492 97.4004 32.9414L97.5762 32.5723L98.2969 33.1172L98.1211 33.4863C97.4297 34.8691 96.8379 36.0117 96.3457 36.9141C95.8652 37.8164 95.4316 38.5371 95.0449 39.0762C94.6582 39.6035 94.2891 39.9727 93.9375 40.1836C93.5977 40.3945 93.2168 40.5 92.7949 40.5C92.5488 40.5 92.3086 40.4648 92.0742 40.3945C91.8398 40.3242 91.6348 40.2012 91.459 40.0254C91.2832 39.8496 91.1426 39.6152 91.0371 39.3223C90.9316 39.0176 90.8789 38.6309 90.8789 38.1621C90.8789 37.459 90.9258 36.668 91.0195 35.7891C91.1133 34.9102 91.2188 34.0312 91.3359 33.1523C91.4531 32.2734 91.5586 31.4473 91.6523 30.6738C91.7461 29.8887 91.793 29.25 91.793 28.7578C91.793 28.3242 91.6992 27.9785 91.5117 27.7207C91.3242 27.4512 91.043 27.3164 90.668 27.3164C90.293 27.3164 89.9004 27.4629 89.4902 27.7559C89.0918 28.0488 88.6992 28.4297 88.3125 28.8984C87.9375 29.3555 87.5801 29.8711 87.2402 30.4453C86.9121 31.0195 86.625 31.5879 86.3789 32.1504C86.3789 33.3809 86.3672 34.459 86.3438 35.3848C86.3203 36.2988 86.2852 37.0723 86.2383 37.7051C86.2031 38.3379 86.1504 38.8418 86.0801 39.2168C86.0098 39.5801 85.9336 39.8262 85.8516 39.9551C85.793 40.0371 85.6934 40.1133 85.5527 40.1836C85.4121 40.2539 85.2539 40.3125 85.0781 40.3594C84.9141 40.4062 84.75 40.4414 84.5859 40.4648C84.4336 40.4883 84.3164 40.5 84.2344 40.5C84.0469 40.5 83.8828 40.4473 83.7422 40.3418C83.6133 40.2246 83.5488 40.002 83.5488 39.6738C83.5488 39.5215 83.5605 39.3164 83.584 39.0586C83.6191 38.8008 83.6602 38.5137 83.707 38.1973C83.7539 37.8809 83.8066 37.541 83.8652 37.1777C83.9238 36.8145 83.9824 36.4453 84.041 36.0703C84.0527 35.7188 84.0645 35.3262 84.0762 34.8926C84.0879 34.459 84.0996 34.0312 84.1113 33.6094C84.123 33.1758 84.1289 32.7656 84.1289 32.3789C84.1406 31.9805 84.1465 31.6406 84.1465 31.3594C84.1465 30.7617 84.1289 30.2168 84.0938 29.7246C84.0586 29.2324 83.9883 28.8105 83.8828 28.459C83.7891 28.1074 83.6543 27.8379 83.4785 27.6504C83.3027 27.4512 83.0742 27.3516 82.793 27.3516ZM102.779 38.5137C103.189 38.5137 103.605 38.4082 104.027 38.1973C104.461 37.9863 104.895 37.6582 105.328 37.2129C105.773 36.7676 106.23 36.1934 106.699 35.4902C107.168 34.7754 107.648 33.9258 108.141 32.9414L108.316 32.5723L109.037 33.1172L108.861 33.4863C108.229 34.7402 107.596 35.8125 106.963 36.7031C106.342 37.5938 105.727 38.3203 105.117 38.8828C104.52 39.4453 103.928 39.8555 103.342 40.1133C102.756 40.3711 102.193 40.5 101.654 40.5C100.893 40.5 100.213 40.3418 99.6152 40.0254C99.0176 39.709 98.5137 39.2812 98.1035 38.7422C97.6934 38.1914 97.3828 37.5586 97.1719 36.8438C96.9492 36.1172 96.8379 35.3555 96.8379 34.5586C96.8379 33.293 97.0137 32.1445 97.3652 31.1133C97.7051 30.0703 98.1621 29.1797 98.7363 28.4414C99.3223 27.7031 99.9844 27.1289 100.723 26.7188C101.461 26.3086 102.229 26.1035 103.025 26.1035C103.834 26.1035 104.449 26.3086 104.871 26.7188C105.305 27.1289 105.521 27.6445 105.521 28.2656C105.521 28.8633 105.352 29.4258 105.012 29.9531C104.672 30.4688 104.209 30.9785 103.623 31.4824C103.049 31.9746 102.381 32.4668 101.619 32.959C100.857 33.4395 100.055 33.9375 99.2109 34.4531C99.293 35.0625 99.4336 35.6191 99.6328 36.123C99.832 36.6152 100.084 37.043 100.389 37.4062C100.693 37.7578 101.045 38.0332 101.443 38.2324C101.842 38.4199 102.287 38.5137 102.779 38.5137ZM103.324 28.793C103.324 28.3242 103.195 27.9551 102.938 27.6855C102.691 27.416 102.387 27.2812 102.023 27.2812C101.719 27.2812 101.396 27.3926 101.057 27.6152C100.717 27.8262 100.406 28.1719 100.125 28.6523C99.8438 29.1211 99.6094 29.7246 99.4219 30.4629C99.2344 31.2012 99.1406 32.0977 99.1406 33.1523V33.5566C99.5391 33.3457 99.9785 33.0703 100.459 32.7305C100.951 32.3789 101.408 31.9922 101.83 31.5703C102.252 31.1484 102.604 30.7031 102.885 30.2344C103.178 29.7539 103.324 29.2734 103.324 28.793ZM112.096 38.2676C112.307 38.2676 112.547 38.1328 112.816 37.8633C113.098 37.582 113.396 37.2012 113.713 36.7207C114.029 36.2402 114.363 35.6777 114.715 35.0332C115.066 34.3887 115.43 33.6914 115.805 32.9414L115.98 32.5723L116.701 33.1172L116.525 33.4863C115.904 34.7285 115.348 35.7949 114.855 36.6855C114.375 37.5645 113.924 38.291 113.502 38.8652C113.08 39.4277 112.676 39.8438 112.289 40.1133C111.914 40.3711 111.527 40.5 111.129 40.5C110.602 40.5 110.145 40.3301 109.758 39.9902C109.383 39.6387 109.066 39.0586 108.809 38.25C108.562 37.4297 108.381 36.3516 108.264 35.0156C108.135 33.6797 108.07 32.0273 108.07 30.0586C108.07 27.2695 108.188 24.8789 108.422 22.8867C108.656 20.8828 108.973 19.2422 109.371 17.9648C109.781 16.6758 110.25 15.7324 110.777 15.1348C111.316 14.5254 111.879 14.2207 112.465 14.2207C112.816 14.2207 113.109 14.3672 113.344 14.6602C113.59 14.9414 113.713 15.457 113.713 16.207C113.713 16.793 113.666 17.4609 113.572 18.2109C113.479 18.9609 113.355 19.7637 113.203 20.6191C113.051 21.4746 112.869 22.3652 112.658 23.291C112.447 24.2051 112.225 25.1191 111.99 26.0332C111.756 26.9355 111.516 27.8262 111.27 28.7051C111.023 29.5723 110.783 30.3867 110.549 31.1484C110.619 32.5898 110.695 33.7734 110.777 34.6992C110.871 35.6133 110.977 36.334 111.094 36.8613C111.223 37.3887 111.369 37.7578 111.533 37.9688C111.697 38.168 111.885 38.2676 112.096 38.2676ZM112.57 16.6289C112.57 16.3828 112.541 16.1895 112.482 16.0488C112.424 15.9082 112.33 15.8379 112.201 15.8379C112.072 15.8379 111.943 16.0195 111.814 16.3828C111.686 16.7461 111.557 17.2383 111.428 17.8594C111.311 18.4805 111.199 19.2012 111.094 20.0215C111 20.8418 110.912 21.7148 110.83 22.6406C110.748 23.5547 110.684 24.4922 110.637 25.4531C110.59 26.4141 110.561 27.3398 110.549 28.2305C110.83 27.1992 111.088 26.1445 111.322 25.0664C111.568 23.9766 111.785 22.9219 111.973 21.9023C112.16 20.8828 112.307 19.9219 112.412 19.0195C112.518 18.1055 112.57 17.3086 112.57 16.6289ZM116.877 32.7656L116.701 33.1172L116.525 33.4863L115.805 32.9414L115.98 32.5723C116.273 31.9746 116.514 31.377 116.701 30.7793C116.9 30.1699 117.059 29.6016 117.176 29.0742C117.305 28.5469 117.41 28.084 117.492 27.6855C117.574 27.2871 117.656 27 117.738 26.8242C117.809 26.6836 117.908 26.5723 118.037 26.4902C118.178 26.3965 118.318 26.3203 118.459 26.2617C118.611 26.2031 118.752 26.1621 118.881 26.1387C119.021 26.1152 119.121 26.1035 119.18 26.1035C119.438 26.1035 119.607 26.1562 119.689 26.2617C119.783 26.3672 119.83 26.5547 119.83 26.8242C119.83 26.9531 119.801 27.2754 119.742 27.791C119.695 28.2949 119.637 28.9336 119.566 29.707C119.508 30.4688 119.449 31.3301 119.391 32.291C119.344 33.2402 119.32 34.2246 119.32 35.2441C119.32 35.9824 119.355 36.5684 119.426 37.002C119.496 37.4238 119.584 37.7402 119.689 37.9512C119.807 38.1621 119.93 38.2969 120.059 38.3555C120.199 38.4141 120.34 38.4434 120.48 38.4434C120.668 38.4434 120.879 38.3613 121.113 38.1973C121.348 38.0332 121.623 37.7461 121.939 37.3359C122.256 36.9141 122.619 36.3516 123.029 35.6484C123.439 34.9336 123.92 34.0312 124.471 32.9414L124.664 32.5723L125.385 33.1172L125.191 33.4863C124.746 34.3535 124.301 35.209 123.855 36.0527C123.422 36.8965 122.977 37.6465 122.52 38.3027C122.074 38.959 121.623 39.4922 121.166 39.9023C120.709 40.3008 120.252 40.5 119.795 40.5C119.314 40.5 118.898 40.4062 118.547 40.2188C118.207 40.0195 117.92 39.6973 117.686 39.252C117.463 38.8066 117.293 38.2207 117.176 37.4941C117.07 36.7559 117.018 35.8477 117.018 34.7695C117.018 34.4648 117.018 34.1484 117.018 33.8203C117.018 33.4805 117.029 33.1289 117.053 32.7656H116.877ZM120.48 22.5C120.48 22.9102 120.34 23.2559 120.059 23.5371C119.789 23.8066 119.449 23.9414 119.039 23.9414C118.641 23.9414 118.301 23.8066 118.02 23.5371C117.738 23.2559 117.598 22.9102 117.598 22.5C117.598 22.1016 117.738 21.7617 118.02 21.4805C118.301 21.1992 118.641 21.0586 119.039 21.0586C119.449 21.0586 119.789 21.1992 120.059 21.4805C120.34 21.7617 120.48 22.1016 120.48 22.5ZM129.568 47.1621C129.568 46.6465 129.662 46.125 129.85 45.5977C130.049 45.0703 130.318 44.5312 130.658 43.9805C130.998 43.4297 131.391 42.8555 131.836 42.2578C132.293 41.6719 132.785 41.0625 133.312 40.4297V37.1074C133.031 37.6582 132.715 38.1445 132.363 38.5664C132.012 38.9883 131.637 39.3457 131.238 39.6387C130.852 39.9199 130.447 40.1367 130.025 40.2891C129.615 40.4297 129.211 40.5 128.812 40.5C128.262 40.5 127.729 40.3652 127.213 40.0957C126.709 39.8262 126.258 39.4219 125.859 38.8828C125.461 38.332 125.145 37.6406 124.91 36.8086C124.676 35.9766 124.559 34.998 124.559 33.873C124.559 32.9238 124.67 31.9863 124.893 31.0605C125.115 30.1348 125.449 29.3086 125.895 28.582C126.34 27.8438 126.891 27.2461 127.547 26.7891C128.203 26.332 128.971 26.1035 129.85 26.1035C130.541 26.1035 131.186 26.2441 131.783 26.5254C132.393 26.8066 132.902 27.2168 133.312 27.7559V27.5449C133.312 27.3223 133.377 27.123 133.506 26.9473C133.646 26.7598 133.816 26.6074 134.016 26.4902C134.227 26.3613 134.443 26.2676 134.666 26.209C134.9 26.1387 135.105 26.1035 135.281 26.1035C135.48 26.1035 135.621 26.1328 135.703 26.1914C135.785 26.2383 135.826 26.3262 135.826 26.4551C135.826 26.6426 135.803 27.0645 135.756 27.7207C135.709 28.377 135.686 29.3379 135.686 30.6035V38.2324C135.979 37.8691 136.289 37.4648 136.617 37.0195C136.945 36.5742 137.273 36.1113 137.602 35.6309C137.93 35.1387 138.246 34.6348 138.551 34.1191C138.867 33.6035 139.16 33.0879 139.43 32.5723L139.605 32.2207L140.326 32.7656L140.15 33.1172C139.869 33.6797 139.541 34.2656 139.166 34.875C138.803 35.4727 138.416 36.0645 138.006 36.6504C137.607 37.2246 137.203 37.7812 136.793 38.3203C136.395 38.8477 136.025 39.3223 135.686 39.7441V43.5586C135.686 44.6367 135.586 45.5508 135.387 46.3008C135.199 47.0625 134.936 47.6777 134.596 48.1465C134.268 48.627 133.869 48.9727 133.4 49.1836C132.943 49.3945 132.445 49.5 131.906 49.5C131.238 49.5 130.682 49.2891 130.236 48.8672C129.791 48.457 129.568 47.8887 129.568 47.1621ZM129.885 38.707C130.248 38.707 130.605 38.6016 130.957 38.3906C131.32 38.1797 131.654 37.9102 131.959 37.582C132.264 37.2539 132.533 36.8965 132.768 36.5098C133.014 36.1113 133.195 35.7246 133.312 35.3496V30.3926C133.312 29.8652 133.23 29.3906 133.066 28.9688C132.902 28.5352 132.686 28.1719 132.416 27.8789C132.146 27.5742 131.836 27.3398 131.484 27.1758C131.145 27.0117 130.793 26.9297 130.43 26.9297C129.867 26.9297 129.375 27.0996 128.953 27.4395C128.531 27.7676 128.18 28.207 127.898 28.7578C127.617 29.2969 127.406 29.918 127.266 30.6211C127.137 31.3242 127.072 32.0391 127.072 32.7656C127.072 33.668 127.125 34.4824 127.23 35.209C127.348 35.9355 127.523 36.5625 127.758 37.0898C127.992 37.6055 128.285 38.0039 128.637 38.2852C128.988 38.5664 129.404 38.707 129.885 38.707ZM131.713 48.4277C131.9 48.4277 132.088 48.3867 132.275 48.3047C132.475 48.2344 132.65 48.0645 132.803 47.7949C132.955 47.5254 133.078 47.127 133.172 46.5996C133.266 46.0723 133.312 45.3574 133.312 44.4551V41.8359C132.504 42.8086 131.842 43.7285 131.326 44.5957C130.822 45.4746 130.57 46.2949 130.57 47.0566C130.57 47.4199 130.67 47.7363 130.869 48.0059C131.068 48.2871 131.35 48.4277 131.713 48.4277ZM141.943 34.3828C141.943 34.957 141.926 35.5664 141.891 36.2109C141.855 36.8438 141.779 37.4824 141.662 38.127C141.557 38.7598 141.398 39.3809 141.188 39.9902C140.977 40.5879 140.689 41.1445 140.326 41.6602L138.99 41.2559C139.283 40.2715 139.459 39.2402 139.518 38.1621C139.576 37.084 139.605 36.0059 139.605 34.9277C139.605 33.7559 139.57 32.584 139.5 31.4121C139.418 30.2402 139.33 29.0684 139.236 27.8965C139.131 26.7129 139.043 25.5234 138.973 24.3281C138.891 23.1328 138.85 21.9258 138.85 20.707C138.85 19.9688 138.932 19.3242 139.096 18.7734C139.248 18.2227 139.453 17.7656 139.711 17.4023C139.969 17.0391 140.256 16.7695 140.572 16.5938C140.889 16.4062 141.205 16.3125 141.521 16.3125C141.967 16.3125 142.318 16.4707 142.576 16.7871C142.846 17.1035 143.045 17.5312 143.174 18.0703C143.303 18.6094 143.367 19.2363 143.367 19.9512C143.379 20.666 143.35 21.4219 143.279 22.2188C143.209 23.0156 143.109 23.8301 142.98 24.6621C142.852 25.4941 142.711 26.3027 142.559 27.0879C142.406 27.873 142.254 28.6055 142.102 29.2852C141.961 29.9648 141.838 30.5449 141.732 31.0254C141.732 31.1191 141.738 31.2188 141.75 31.3242C141.762 31.418 141.768 31.5117 141.768 31.6055C142.014 31.0547 142.312 30.4629 142.664 29.8301C143.027 29.1855 143.432 28.5879 143.877 28.0371C144.334 27.4863 144.826 27.0293 145.354 26.666C145.893 26.291 146.461 26.1035 147.059 26.1035C147.938 26.1035 148.6 26.3965 149.045 26.9824C149.49 27.5684 149.713 28.4121 149.713 29.5137C149.713 30.2754 149.672 31.0078 149.59 31.7109C149.508 32.4141 149.414 33.0938 149.309 33.75C149.215 34.3945 149.127 35.0215 149.045 35.6309C148.963 36.2402 148.922 36.8438 148.922 37.4414C148.922 38.1562 149.104 38.5137 149.467 38.5137C149.643 38.5137 149.865 38.3613 150.135 38.0566C150.416 37.7402 150.727 37.3242 151.066 36.8086C151.406 36.293 151.764 35.7012 152.139 35.0332C152.514 34.3652 152.883 33.668 153.246 32.9414L153.422 32.5723L154.143 33.1172L153.967 33.4863C153.557 34.2949 153.129 35.1152 152.684 35.9473C152.238 36.7793 151.781 37.5352 151.312 38.2148C150.844 38.8828 150.363 39.4336 149.871 39.8672C149.391 40.2891 148.91 40.5 148.43 40.5C148.219 40.5 148.002 40.4648 147.779 40.3945C147.568 40.3242 147.375 40.2012 147.199 40.0254C147.023 39.8496 146.877 39.6152 146.76 39.3223C146.643 39.0176 146.584 38.6309 146.584 38.1621C146.584 37.6934 146.607 37.1836 146.654 36.6328C146.701 36.082 146.754 35.5195 146.812 34.9453C146.883 34.3594 146.959 33.7793 147.041 33.2051C147.123 32.6309 147.193 32.0918 147.252 31.5879C147.322 31.084 147.381 30.6328 147.428 30.2344C147.475 29.8242 147.498 29.4902 147.498 29.2324C147.498 28.5645 147.404 28.0781 147.217 27.7734C147.029 27.4688 146.748 27.3164 146.373 27.3164C145.904 27.3164 145.453 27.5215 145.02 27.9316C144.586 28.3418 144.176 28.8574 143.789 29.4785C143.414 30.0879 143.068 30.75 142.752 31.4648C142.436 32.168 142.154 32.8184 141.908 33.416C141.908 33.5918 141.914 33.7676 141.926 33.9434C141.938 34.1074 141.943 34.2539 141.943 34.3828ZM140.801 19.3359C140.801 19.8164 140.818 20.4023 140.854 21.0938C140.9 21.7734 140.953 22.5117 141.012 23.3086C141.082 24.1055 141.152 24.9375 141.223 25.8047C141.305 26.6719 141.387 27.5273 141.469 28.3711C141.598 27.7148 141.727 26.9941 141.855 26.209C141.984 25.4121 142.096 24.6152 142.189 23.8184C142.295 23.0098 142.371 22.2246 142.418 21.4629C142.477 20.7012 142.488 20.0273 142.453 19.4414C142.43 18.8555 142.354 18.3867 142.225 18.0352C142.096 17.6719 141.908 17.4902 141.662 17.4902C141.439 17.4902 141.24 17.625 141.064 17.8945C140.889 18.1641 140.801 18.6445 140.801 19.3359ZM153.352 34.7344C153.352 33.4922 153.398 32.2441 153.492 30.9902C153.586 29.7363 153.709 28.4648 153.861 27.1758H152.262L152.455 26.1035H154.002C154.166 24.9082 154.33 23.7129 154.494 22.5176C154.67 21.3105 154.828 20.1035 154.969 18.8965H156.762C156.738 19.1543 156.703 19.5293 156.656 20.0215C156.621 20.502 156.574 21.0645 156.516 21.709C156.469 22.3418 156.422 23.0391 156.375 23.8008C156.328 24.5508 156.281 25.3184 156.234 26.1035H159.645L159.469 27.1758H156.164C156.117 27.8438 156.076 28.5 156.041 29.1445C156.006 29.7891 155.971 30.4043 155.936 30.9902C155.912 31.5645 155.895 32.0977 155.883 32.5898C155.871 33.0703 155.865 33.4863 155.865 33.8379C155.865 34.7285 155.889 35.4727 155.936 36.0703C155.994 36.668 156.076 37.1484 156.182 37.5117C156.299 37.875 156.439 38.1328 156.604 38.2852C156.779 38.4375 156.979 38.5137 157.201 38.5137C157.494 38.5137 157.816 38.3672 158.168 38.0742C158.531 37.7695 158.906 37.3652 159.293 36.8613C159.68 36.3574 160.072 35.7715 160.471 35.1035C160.869 34.4238 161.256 33.7031 161.631 32.9414L161.807 32.5723L162.527 33.1172L162.352 33.4863C161.812 34.5762 161.273 35.5547 160.734 36.4219C160.207 37.2891 159.686 38.0273 159.17 38.6367C158.654 39.2344 158.15 39.6973 157.658 40.0254C157.166 40.3418 156.691 40.5 156.234 40.5C155.777 40.5 155.367 40.3945 155.004 40.1836C154.652 39.9727 154.354 39.6387 154.107 39.1816C153.861 38.7129 153.674 38.1152 153.545 37.3887C153.416 36.6621 153.352 35.7773 153.352 34.7344Z" fill="#1F1F1F"/>
</svg>
