<svg width="54" height="40" viewBox="0 0 54 40" fill="none" xmlns="http://www.w3.org/2000/svg">
<path d="M16.2 19.678C21.4228 19.678 25.65 15.2768 25.65 9.83898C25.65 4.40119 21.4228 0 16.2 0C10.9772 0 6.75 4.40119 6.75 9.83898C6.75 15.2768 10.9772 19.678 16.2 19.678ZM22.68 22.4891H21.9797C20.2247 23.3676 18.2756 23.8947 16.2 23.8947C14.1244 23.8947 12.1838 23.3676 10.4203 22.4891H9.72C4.35375 22.4891 0 27.0221 0 32.6092V35.1392C0 37.4672 1.81406 39.3559 4.05 39.3559H28.35C30.5859 39.3559 32.4 37.4672 32.4 35.1392V32.6092C32.4 27.0221 28.0462 22.4891 22.68 22.4891ZM40.5 19.678C44.9719 19.678 48.6 15.9005 48.6 11.2446C48.6 6.5886 44.9719 2.81114 40.5 2.81114C36.0281 2.81114 32.4 6.5886 32.4 11.2446C32.4 15.9005 36.0281 19.678 40.5 19.678ZM44.55 22.4891H44.2294C43.0566 22.9108 41.8163 23.1919 40.5 23.1919C39.1838 23.1919 37.9434 22.9108 36.7706 22.4891H36.45C34.7288 22.4891 33.1425 23.0074 31.7503 23.842C33.8091 26.1524 35.1 29.2183 35.1 32.6092V35.9826C35.1 36.1758 35.0578 36.3603 35.0494 36.5448H49.95C52.1859 36.5448 54 34.6561 54 32.3281C54 26.8903 49.7728 22.4891 44.55 22.4891V22.4891Z" fill="#393431"/>
</svg>
