<svg width="14" height="7" viewBox="0 0 14 7" fill="none" xmlns="http://www.w3.org/2000/svg">
<path d="M10.3053 0C8.85938 0 7.72844 0.903438 7 1.71938C6.27156 0.903438 5.14062 0 3.69469 0C1.65812 0 0 1.57063 0 3.5C0 5.42937 1.65812 7 3.69469 7C5.14062 7 6.27156 6.09656 7 5.28062C7.72844 6.09656 8.85938 7 10.3053 7C12.3419 7 14 5.42937 14 3.5C14 1.57063 12.3419 0 10.3053 0ZM3.69469 4.9C2.81531 4.9 2.1 4.27219 2.1 3.5C2.1 2.72781 2.81531 2.1 3.69469 2.1C4.53031 2.1 5.30031 2.88969 5.75094 3.5C5.30469 4.10375 4.52812 4.9 3.69469 4.9ZM10.3053 4.9C9.46969 4.9 8.69969 4.11031 8.24906 3.5C8.69531 2.89625 9.47187 2.1 10.3053 2.1C11.1847 2.1 11.9 2.72781 11.9 3.5C11.9 4.27219 11.1847 4.9 10.3053 4.9Z" fill="#1F1F1F"/>
</svg>
