<svg width="14" height="15" viewBox="0 0 14 15" fill="none" xmlns="http://www.w3.org/2000/svg">
<path d="M6.125 3.12505L6.5625 2.25003L7.4375 1.81253L6.5625 1.37502L6.125 0.5L5.6875 1.37502L4.8125 1.81253L5.6875 2.25003L6.125 3.12505ZM2.1875 4.87509L2.91648 3.41681L4.375 2.68754L2.91648 1.95827L2.1875 0.5L1.45852 1.95827L0 2.68754L1.45852 3.41681L2.1875 4.87509ZM11.8125 8.37515L11.0835 9.83342L9.625 10.5627L11.0835 11.292L11.8125 12.7502L12.5415 11.292L14 10.5627L12.5415 9.83342L11.8125 8.37515ZM13.7435 3.07665L11.4234 0.756489C11.2528 0.585314 11.0288 0.5 10.8049 0.5C10.5809 0.5 10.357 0.585314 10.1861 0.756489L0.256484 10.6863C-0.0853125 11.0281 -0.0853125 11.5821 0.256484 11.9236L2.5766 14.2438C2.7475 14.4147 2.97145 14.5 3.19512 14.5C3.41906 14.5 3.64301 14.4147 3.81391 14.2438L13.7435 4.31371C14.0853 3.97245 14.0853 3.41818 13.7435 3.07665ZM9.82871 6.06347L8.43664 4.67137L10.8046 2.30336L12.1967 3.69545L9.82871 6.06347Z" fill="#1F1F1F"/>
</svg>
