<svg width="37" height="38" viewBox="0 0 37 38" fill="none" xmlns="http://www.w3.org/2000/svg">
<g filter="url(#filter0_d_944_270)">
<path d="M16 27.25C17.7345 27.25 19.1414 25.8511 19.1414 24.125H12.8586C12.8586 25.8511 14.2655 27.25 16 27.25ZM26.5772 19.9399C25.6284 18.9263 23.8532 17.4014 23.8532 12.4062C23.8532 8.6123 21.1778 5.5752 17.5704 4.83008V3.8125C17.5704 2.94971 16.8672 2.25 16 2.25C15.1328 2.25 14.4296 2.94971 14.4296 3.8125V4.83008C10.8222 5.5752 8.14681 8.6123 8.14681 12.4062C8.14681 17.4014 6.37159 18.9263 5.42285 19.9399C5.1282 20.2549 4.99758 20.6313 5.00003 21C5.00544 21.8008 5.63744 22.5625 6.57637 22.5625H25.4236C26.3626 22.5625 26.9951 21.8008 27 21C27.0024 20.6313 26.8718 20.2544 26.5772 19.9399Z" fill="#515151"/>
</g>
<g filter="url(#filter1_d_944_270)">
<circle cx="27" cy="24.75" r="5" fill="#D50000"/>
</g>
<path d="M26.934 27.8295C26.6954 27.8258 26.4567 27.7803 26.2181 27.6932C25.9794 27.6061 25.7616 27.4593 25.5647 27.2528C25.3677 27.0445 25.2096 26.7633 25.0902 26.4091C24.9709 26.053 24.9113 25.6061 24.9113 25.0682C24.9113 24.553 24.9596 24.0966 25.0562 23.6989C25.1527 23.2992 25.2929 22.9631 25.4766 22.6903C25.6603 22.4157 25.8819 22.2074 26.1414 22.0653C26.4027 21.9233 26.6973 21.8523 27.0249 21.8523C27.3507 21.8523 27.6404 21.9176 27.8942 22.0483C28.1499 22.1771 28.3582 22.357 28.5192 22.5881C28.6802 22.8191 28.7844 23.0852 28.8317 23.3864H28.1385C28.0741 23.125 27.9491 22.9081 27.7635 22.7358C27.5779 22.5634 27.3317 22.4773 27.0249 22.4773C26.5741 22.4773 26.219 22.6733 25.9596 23.0653C25.702 23.4574 25.5723 24.0076 25.5704 24.7159H25.6158C25.7219 24.5549 25.8478 24.4176 25.9937 24.304C26.1414 24.1884 26.3043 24.0994 26.4823 24.0369C26.6603 23.9744 26.8488 23.9432 27.0476 23.9432C27.381 23.9432 27.6859 24.0265 27.9624 24.1932C28.2389 24.358 28.4605 24.5862 28.6272 24.8778C28.7938 25.1676 28.8772 25.5 28.8772 25.875C28.8772 26.2348 28.7967 26.5644 28.6357 26.8636C28.4747 27.161 28.2484 27.3977 27.9567 27.5739C27.6669 27.7481 27.326 27.8333 26.934 27.8295ZM26.934 27.2045C27.1726 27.2045 27.3866 27.1449 27.576 27.0256C27.7673 26.9062 27.9179 26.7462 28.0277 26.5455C28.1395 26.3447 28.1954 26.1212 28.1954 25.875C28.1954 25.6345 28.1414 25.4157 28.0334 25.2188C27.9274 25.0199 27.7806 24.8617 27.5931 24.7443C27.4075 24.6269 27.1954 24.5682 26.9567 24.5682C26.7768 24.5682 26.6092 24.6042 26.4539 24.6761C26.2986 24.7462 26.1622 24.8428 26.0448 24.9659C25.9293 25.089 25.8383 25.2301 25.7721 25.3892C25.7058 25.5464 25.6726 25.7121 25.6726 25.8864C25.6726 26.1174 25.7266 26.3333 25.8346 26.5341C25.9444 26.7348 26.094 26.8968 26.2834 27.0199C26.4747 27.143 26.6916 27.2045 26.934 27.2045Z" fill="white"/>
<defs>
<filter id="filter0_d_944_270" x="0" y="0.25" width="32" height="35" filterUnits="userSpaceOnUse" color-interpolation-filters="sRGB">
<feFlood flood-opacity="0" result="BackgroundImageFix"/>
<feColorMatrix in="SourceAlpha" type="matrix" values="0 0 0 0 0 0 0 0 0 0 0 0 0 0 0 0 0 0 127 0" result="hardAlpha"/>
<feOffset dy="3"/>
<feGaussianBlur stdDeviation="2.5"/>
<feComposite in2="hardAlpha" operator="out"/>
<feColorMatrix type="matrix" values="0 0 0 0 0 0 0 0 0 0 0 0 0 0 0 0 0 0 0.25 0"/>
<feBlend mode="normal" in2="BackgroundImageFix" result="effect1_dropShadow_944_270"/>
<feBlend mode="normal" in="SourceGraphic" in2="effect1_dropShadow_944_270" result="shape"/>
</filter>
<filter id="filter1_d_944_270" x="17" y="17.75" width="20" height="20" filterUnits="userSpaceOnUse" color-interpolation-filters="sRGB">
<feFlood flood-opacity="0" result="BackgroundImageFix"/>
<feColorMatrix in="SourceAlpha" type="matrix" values="0 0 0 0 0 0 0 0 0 0 0 0 0 0 0 0 0 0 127 0" result="hardAlpha"/>
<feOffset dy="3"/>
<feGaussianBlur stdDeviation="2.5"/>
<feComposite in2="hardAlpha" operator="out"/>
<feColorMatrix type="matrix" values="0 0 0 0 0 0 0 0 0 0 0 0 0 0 0 0 0 0 0.25 0"/>
<feBlend mode="normal" in2="BackgroundImageFix" result="effect1_dropShadow_944_270"/>
<feBlend mode="normal" in="SourceGraphic" in2="effect1_dropShadow_944_270" result="shape"/>
</filter>
</defs>
</svg>
