<svg width="34" height="42" viewBox="0 0 34 42" fill="none" xmlns="http://www.w3.org/2000/svg">
<path d="M8.4 8.4H6.3C5.74304 8.4 5.2089 8.17875 4.81508 7.78492C4.42125 7.3911 4.2 6.85695 4.2 6.3C4.2 5.74304 4.42125 5.2089 4.81508 4.81508C5.2089 4.42125 5.74304 4.2 6.3 4.2H29.4V2.1C29.4 1.54305 29.1787 1.0089 28.7849 0.615076C28.3911 0.221249 27.857 0 27.3 0L4.2 0C3.08609 0 2.0178 0.442499 1.23015 1.23015C0.442498 2.0178 0 3.08609 0 4.2V37.8C0 40.11 1.89 42 4.2 42H29.4C30.5139 42 31.5822 41.5575 32.3698 40.7698C33.1575 39.9822 33.6 38.9139 33.6 37.8V10.5C33.6 9.94304 33.3787 9.4089 32.9849 9.01508C32.5911 8.62125 32.0569 8.4 31.5 8.4H16.8V25.2L12.6 21L8.4 25.2V8.4Z" fill="black"/>
</svg>
