<svg width="54" height="38" viewBox="0 0 54 38" fill="none" xmlns="http://www.w3.org/2000/svg">
<path d="M52.4096 1.89503C49.1367 0.522273 45.8613 1.01481e-07 42.5876 1.01481e-07C32.1953 -0.000843635 21.8038 5.25986 11.4115 5.25986C8.80524 5.25986 6.20062 4.92911 3.59432 4.10225C3.30154 4.00944 3.00792 3.96556 2.72105 3.96556C1.26898 3.96556 0 5.08942 0 6.64949V33.4179C0 34.4835 0.610022 35.4935 1.5896 35.9035C4.86246 37.2771 8.13784 37.7994 11.4115 37.7994C21.8038 37.7994 32.1962 32.5387 42.5885 32.5387C45.1948 32.5387 47.7994 32.8695 50.4057 33.6963C50.6985 33.7891 50.9921 33.833 51.2789 33.833C52.731 33.833 54 32.7091 54 31.1491V4.38153C53.9992 3.31504 53.3891 2.30593 52.4096 1.89503ZM26.9996 26.9996C23.2711 26.9996 20.2497 23.3724 20.2497 18.8997C20.2497 14.4262 23.2719 10.7998 26.9996 10.7998C30.7272 10.7998 33.7495 14.4262 33.7495 18.8997C33.7495 23.374 30.7264 26.9996 26.9996 26.9996Z" fill="black"/>
</svg>
