<svg width="22" height="17" viewBox="0 0 22 17" fill="none" xmlns="http://www.w3.org/2000/svg">
<path d="M19.75 0.799438H2.25C1.28385 0.799438 0.5 1.5673 0.5 2.51372V15.0852C0.5 16.0316 1.28385 16.7994 2.25 16.7994H19.75C20.7161 16.7994 21.5 16.0316 21.5 15.0852V2.51372C21.5 1.5673 20.7161 0.799438 19.75 0.799438ZM6.91667 4.22801C8.20365 4.22801 9.25 5.25301 9.25 6.51372C9.25 7.77444 8.20365 8.79944 6.91667 8.79944C5.62969 8.79944 4.58333 7.77444 4.58333 6.51372C4.58333 5.25301 5.62969 4.22801 6.91667 4.22801ZM11 12.6852C11 13.0637 10.6354 13.3709 10.1833 13.3709H3.65C3.19792 13.3709 2.83333 13.0637 2.83333 12.6852V11.9994C2.83333 10.8637 3.93073 9.9423 5.28333 9.9423H5.46562C5.91406 10.1244 6.4026 10.228 6.91667 10.228C7.43073 10.228 7.92292 10.1244 8.36771 9.9423H8.55C9.9026 9.9423 11 10.8637 11 11.9994V12.6852ZM19.1667 10.7994C19.1667 10.9566 19.0354 11.0852 18.875 11.0852H13.625C13.4646 11.0852 13.3333 10.9566 13.3333 10.7994V10.228C13.3333 10.0709 13.4646 9.9423 13.625 9.9423H18.875C19.0354 9.9423 19.1667 10.0709 19.1667 10.228V10.7994ZM19.1667 8.51372C19.1667 8.67087 19.0354 8.79944 18.875 8.79944H13.625C13.4646 8.79944 13.3333 8.67087 13.3333 8.51372V7.9423C13.3333 7.78515 13.4646 7.65658 13.625 7.65658H18.875C19.0354 7.65658 19.1667 7.78515 19.1667 7.9423V8.51372ZM19.1667 6.22801C19.1667 6.38515 19.0354 6.51372 18.875 6.51372H13.625C13.4646 6.51372 13.3333 6.38515 13.3333 6.22801V5.65658C13.3333 5.49944 13.4646 5.37087 13.625 5.37087H18.875C19.0354 5.37087 19.1667 5.49944 19.1667 5.65658V6.22801Z" fill="black"/>
</svg>
