<svg width="21" height="20" viewBox="0 0 21 20" fill="none" xmlns="http://www.w3.org/2000/svg">
<path d="M20.2445 12.4032L18.4502 11.4113C18.6313 10.4758 18.6313 9.51613 18.4502 8.58065L20.2445 7.58872C20.4509 7.47582 20.5436 7.24195 20.4762 7.0242C20.0087 5.58873 19.2126 4.29034 18.1722 3.2097C18.0121 3.04438 17.751 3.00406 17.5488 3.11696L15.7544 4.10889C15.0005 3.48793 14.1328 3.00809 13.1935 2.69358V0.713745C13.1935 0.487939 13.0292 0.290359 12.7975 0.241972C11.2517 -0.0886715 9.66792 -0.0725426 8.1979 0.241972C7.96623 0.290359 7.80196 0.487939 7.80196 0.713745V2.69761C6.86687 3.01616 5.99917 3.49599 5.24099 4.11293L3.45084 3.12099C3.24445 3.00809 2.98751 3.04438 2.82745 3.21374C1.78706 4.29034 0.990969 5.58873 0.523424 7.02824C0.451818 7.24598 0.548697 7.47985 0.755091 7.59275L2.54945 8.58468C2.36833 9.52016 2.36833 10.4798 2.54945 11.4153L0.755091 12.4072C0.548697 12.5202 0.456031 12.754 0.523424 12.9718C0.990969 14.4072 1.78706 15.7056 2.82745 16.7863C2.98751 16.9516 3.24866 16.9919 3.45084 16.879L5.2452 15.8871C5.99917 16.508 6.86687 16.9879 7.80617 17.3024V19.2863C7.80617 19.5121 7.97044 19.7096 8.20211 19.758C9.74796 20.0887 11.3317 20.0725 12.8017 19.758C13.0334 19.7096 13.1977 19.5121 13.1977 19.2863V17.3024C14.1328 16.9838 15.0005 16.504 15.7586 15.8871L17.553 16.879C17.7594 16.9919 18.0163 16.9556 18.1764 16.7863C19.2168 15.7097 20.0129 14.4113 20.4804 12.9718C20.5436 12.75 20.4509 12.5161 20.2445 12.4032ZM10.4977 13.2218C8.64017 13.2218 7.12802 11.7742 7.12802 9.99597C7.12802 8.21775 8.64017 6.77017 10.4977 6.77017C12.3553 6.77017 13.8674 8.21775 13.8674 9.99597C13.8674 11.7742 12.3553 13.2218 10.4977 13.2218Z" fill="#1F1F1F"/>
</svg>
