<svg width="21" height="20" viewBox="0 0 21 20" fill="none" xmlns="http://www.w3.org/2000/svg">
<path d="M18.0175 0H3.00676C1.62266 0 0.501984 1.12054 0.501984 2.5C0.49752 2.5 0.501984 2.32143 0.501984 17.5C0.501984 18.8795 1.62266 20 3.00229 20H18.0131C19.3882 19.9911 20.5 18.875 20.5 17.5V2.5C20.5044 1.125 19.3927 0.00892857 18.0175 0ZM9.29771 15.1473C9.28878 15.8036 8.75747 16.3348 8.09667 16.3348H4.40425C3.74346 16.3393 3.20321 15.808 3.19875 15.1473V3.79911C3.19875 3.13839 3.73453 2.59821 4.39979 2.59821H8.10114C8.76193 2.59821 9.30218 3.13393 9.30218 3.79911V15.1473H9.29771ZM17.9193 10.1473C17.9193 10.808 17.3835 11.3482 16.7183 11.3482H13.1018C12.441 11.3482 11.9007 10.8125 11.9007 10.1473V3.80357C11.9007 3.14286 12.4365 2.60268 13.0973 2.60268H16.7183C17.3791 2.60268 17.9193 3.13839 17.9193 3.80357V10.1473Z" fill="#1F1F1F"/>
</svg>
