<svg width="25" height="39" viewBox="0 0 25 39" fill="none" xmlns="http://www.w3.org/2000/svg">
<path d="M0.892857 11.2755H24.1071C24.6003 11.2755 25 10.8004 25 10.2143V7.56122C25 6.9751 24.6003 6.5 24.1071 6.5H0.892857C0.399721 6.5 0 6.9751 0 7.56122V10.2143C0 10.8004 0.399721 11.2755 0.892857 11.2755ZM0.892857 21.8878H24.1071C24.6003 21.8878 25 21.4127 25 20.8265V18.1735C25 17.5873 24.6003 17.1122 24.1071 17.1122H0.892857C0.399721 17.1122 0 17.5873 0 18.1735V20.8265C0 21.4127 0.399721 21.8878 0.892857 21.8878ZM0.892857 32.5H24.1071C24.6003 32.5 25 32.0249 25 31.4388V28.7857C25 28.1996 24.6003 27.7245 24.1071 27.7245H0.892857C0.399721 27.7245 0 28.1996 0 28.7857V31.4388C0 32.0249 0.399721 32.5 0.892857 32.5Z" fill="black"/>
</svg>
