<svg width="33" height="23" viewBox="0 0 33 23" fill="none" xmlns="http://www.w3.org/2000/svg">
<path d="M32.6397 10.6635C29.6269 4.60151 23.6625 0.5 16.833 0.5C10.0036 0.5 4.03743 4.60438 1.02631 10.6641C0.899223 10.9234 0.833008 11.2098 0.833008 11.5003C0.833008 11.7908 0.899223 12.0772 1.02631 12.3365C4.03909 18.3985 10.0036 22.5 16.833 22.5C23.6625 22.5 29.6286 18.3956 32.6397 12.3359C32.7668 12.0766 32.833 11.7902 32.833 11.4997C32.833 11.2092 32.7668 10.9228 32.6397 10.6635V10.6635ZM16.833 19.75C15.2508 19.75 13.704 19.2661 12.3884 18.3596C11.0728 17.4531 10.0475 16.1646 9.44196 14.6571C8.83646 13.1496 8.67803 11.4908 8.98671 9.89051C9.29539 8.29016 10.0573 6.82015 11.1761 5.66637C12.295 4.51259 13.7204 3.72685 15.2723 3.40852C16.8241 3.09019 18.4327 3.25357 19.8945 3.87799C21.3563 4.50242 22.6057 5.55984 23.4848 6.91655C24.3638 8.27325 24.833 9.8683 24.833 11.5C24.8335 12.5836 24.627 13.6566 24.2251 14.6578C23.8232 15.6589 23.234 16.5686 22.491 17.3348C21.748 18.101 20.8659 18.7087 19.8951 19.1231C18.9242 19.5375 17.8837 19.7505 16.833 19.75V19.75ZM16.833 6C16.357 6.00686 15.884 6.0799 15.4269 6.21714C15.8037 6.74518 15.9845 7.39499 15.9365 8.04872C15.8886 8.70245 15.615 9.31681 15.1655 9.78039C14.716 10.244 14.1202 10.5261 13.4863 10.5755C12.8524 10.625 12.2223 10.4385 11.7102 10.0499C11.4186 11.1577 11.4713 12.3319 11.8607 13.4072C12.2501 14.4826 12.9568 15.4049 13.8811 16.0444C14.8055 16.6838 15.901 17.0083 17.0135 16.972C18.1261 16.9358 19.1996 16.5407 20.0829 15.8423C20.9663 15.1439 21.6151 14.1775 21.9379 13.079C22.2608 11.9804 22.2414 10.8052 21.8826 9.71856C21.5238 8.63196 20.8436 7.68875 19.9378 7.02169C19.032 6.35463 17.9461 5.9973 16.833 6V6Z" fill="#1F1F1F"/>
</svg>
