<svg width="81" height="56" viewBox="0 0 81 56" fill="none" xmlns="http://www.w3.org/2000/svg">
<g filter="url(#filter0_d_808_251)">
<path d="M74.85 3.40643C70.4255 1.66321 65.9977 1 61.5721 1C47.5233 0.998929 33.4756 7.67929 19.4267 7.67929C15.9034 7.67929 12.3823 7.25929 8.85899 6.20929C8.4632 6.09143 8.06626 6.03571 7.67846 6.03571C5.71547 6.03571 4 7.46286 4 9.44393V43.4361C4 44.7893 4.82466 46.0718 6.1489 46.5925C10.5733 48.3368 15.0012 49 19.4267 49C33.4756 49 47.5244 42.3196 61.5733 42.3196C65.0966 42.3196 68.6177 42.7396 72.141 43.7896C72.5368 43.9075 72.9337 43.9632 73.3215 43.9632C75.2845 43.9632 77 42.5361 77 40.555V6.56393C76.9989 5.20964 76.1742 3.92821 74.85 3.40643V3.40643ZM9.47491 11.7379C11.7698 12.2779 14.1651 12.5489 16.6288 12.6946C15.9581 15.8436 13.0108 18.2168 9.47491 18.2168V11.7379ZM9.47491 42.2736V37.1543C13.3952 37.1543 16.5672 40.0761 16.7417 43.7329C14.1719 43.5389 11.7698 43.0568 9.47491 42.2736V42.2736ZM40.4994 35.2857C35.4591 35.2857 31.3746 30.6796 31.3746 25C31.3746 19.3193 35.4602 14.7143 40.4994 14.7143C45.5386 14.7143 49.6243 19.3193 49.6243 25C49.6243 30.6818 45.5375 35.2857 40.4994 35.2857ZM71.5239 38.2621C69.5256 37.7918 67.4508 37.5282 65.3282 37.3579C65.9977 34.5636 68.4648 32.4421 71.5239 32.0779V38.2621ZM71.5239 12.9646C68.0006 12.5457 65.2666 9.7825 65.1582 6.37C67.387 6.6025 69.5028 7.0375 71.5239 7.72643V12.9646Z" fill="#537248"/>
<path d="M6.33187 46.1272L6.33229 46.1273C10.6886 47.8448 15.0526 48.5 19.4267 48.5C26.3823 48.5 33.3489 46.8461 40.3843 45.1734L40.4145 45.1662C47.418 43.5011 54.4902 41.8196 61.5733 41.8196C65.1369 41.8196 68.707 42.2445 72.2837 43.3104C72.6329 43.4144 72.9818 43.4632 73.3215 43.4632C75.0612 43.4632 76.5 42.2099 76.5 40.555V6.56435C76.499 5.40903 75.7942 4.31589 74.6667 3.87162C70.3103 2.15522 65.9463 1.5 61.5721 1.5C54.6165 1.49947 47.6503 3.1531 40.6151 4.82568L40.5833 4.83325C33.5806 6.49811 26.5092 8.17929 19.4267 8.17929C15.8631 8.17929 12.293 7.7544 8.71629 6.68849L6.33187 46.1272ZM6.33187 46.1272C5.20476 45.684 4.5 44.5901 4.5 43.4361V9.44393C4.5 7.789 5.93881 6.53571 7.67846 6.53571C8.01816 6.53571 8.36698 6.58449 8.71619 6.68846L6.33187 46.1272ZM9.58944 11.2512L8.97491 11.1065V11.7379V18.2168V18.7168H9.47491C13.232 18.7168 16.395 16.1927 17.1178 12.7988L17.239 12.2299L16.6583 12.1955C14.2106 12.0507 11.8463 11.7822 9.58944 11.2512ZM9.47491 36.6543H8.97491V37.1543V42.2736H9.47491L9.31342 42.7468C11.6508 43.5445 14.0948 44.0345 16.7041 44.2314L17.2681 44.274L17.2412 43.709C17.0529 39.7646 13.6404 36.6543 9.47491 36.6543ZM71.4094 38.7488L72.0239 38.8935V38.2621V32.0779V31.5148L71.4648 31.5814C68.2142 31.9685 65.564 34.2279 64.8419 37.2414L64.7058 37.8095L65.2882 37.8563C67.397 38.0255 69.4445 38.2864 71.4094 38.7488ZM71.4649 13.4611L72.0239 13.5276V12.9646V7.72643V7.36861L71.6853 7.25317C69.6237 6.55047 67.4705 6.1085 65.2101 5.8727L64.6403 5.81326L64.6585 6.38587C64.7755 10.0708 67.7221 13.0161 71.4649 13.4611ZM30.8746 25C30.8746 30.8978 35.1283 35.7857 40.4994 35.7857C45.8682 35.7857 50.1243 30.9001 50.1243 25C50.1243 19.1011 45.8694 14.2143 40.4994 14.2143C35.1295 14.2143 30.8746 19.1011 30.8746 25Z" stroke="black" stroke-opacity="0.2"/>
</g>
<defs>
<filter id="filter0_d_808_251" x="0" y="0" width="81" height="56" filterUnits="userSpaceOnUse" color-interpolation-filters="sRGB">
<feFlood flood-opacity="0" result="BackgroundImageFix"/>
<feColorMatrix in="SourceAlpha" type="matrix" values="0 0 0 0 0 0 0 0 0 0 0 0 0 0 0 0 0 0 127 0" result="hardAlpha"/>
<feOffset dy="3"/>
<feGaussianBlur stdDeviation="2"/>
<feComposite in2="hardAlpha" operator="out"/>
<feColorMatrix type="matrix" values="0 0 0 0 0 0 0 0 0 0 0 0 0 0 0 0 0 0 0.25 0"/>
<feBlend mode="normal" in2="BackgroundImageFix" result="effect1_dropShadow_808_251"/>
<feBlend mode="normal" in="SourceGraphic" in2="effect1_dropShadow_808_251" result="shape"/>
</filter>
</defs>
</svg>
