<svg xmlns="http://www.w3.org/2000/svg"><symbol id="icon-section-icon" viewBox="0 0 63 51"><g filter="url(#filter0_d_952_854)"><path d="M57.234 36.833c.697 0 1.266.605 1.266 1.344v4.48c0 .738-.57 1.343-1.266 1.343H5.766C5.07 44 4.5 43.395 4.5 42.656V2.344C4.5 1.604 5.07 1 5.766 1h4.218c.697 0 1.266.605 1.266 1.344v34.49h45.984zM43.808 11.694l-8.933 6.327-8.997-12.732c-.537-.762-1.634-.706-2.098.112l-9.155 16.203V33.25h40.5l-9.482-21.03c-.337-.728-1.202-.974-1.835-.526z"/></g><defs><filter id="filter0_d_952_854" x=".5" y="0" width="62" height="51" filterUnits="userSpaceOnUse" color-interpolation-filters="sRGB"><feFlood flood-opacity="0" result="BackgroundImageFix"/><feColorMatrix in="SourceAlpha" values="0 0 0 0 0 0 0 0 0 0 0 0 0 0 0 0 0 0 127 0" result="hardAlpha"/><feOffset dy="3"/><feGaussianBlur stdDeviation="2"/><feComposite in2="hardAlpha" operator="out"/><feColorMatrix values="0 0 0 0 0 0 0 0 0 0 0 0 0 0 0 0 0 0 0.25 0"/><feBlend in2="BackgroundImageFix" result="effect1_dropShadow_952_854"/><feBlend in="SourceGraphic" in2="effect1_dropShadow_952_854" result="shape"/></filter></defs></symbol><symbol id="icon-approved" viewBox="0 0 25 26"><path d="M2 15.007L9.557 22.5 23 2.5" stroke-width="3" stroke-linecap="round" stroke-linejoin="round"/></symbol><symbol id="icon-denied" viewBox="0 0 17 18"><path d="M2 15l6.5-6.5M15 2L8.5 8.5m0 0L2 2m6.5 6.5L15 15" stroke-width="3" stroke-linecap="round" stroke-linejoin="round"/></symbol><symbol id="icon-pending" viewBox="0 0 28 28"><path d="M9.275 9.1h-6.3a1.4 1.4 0 01-1.4-1.4V1.4a1.4 1.4 0 112.8 0v4.9h4.9a1.4 1.4 0 010 2.8z"/><path d="M26.6 15.4a1.4 1.4 0 01-1.4-1.4A11.192 11.192 0 004.31 8.401 1.4 1.4 0 111.889 7 13.993 13.993 0 0128 14a1.4 1.4 0 01-1.4 1.4zM25.025 28a1.4 1.4 0 01-1.4-1.4v-4.9h-4.9a1.4 1.4 0 010-2.8h6.3a1.4 1.4 0 011.4 1.4v6.3a1.4 1.4 0 01-1.4 1.4z"/><path d="M14 28A14.017 14.017 0 010 14a1.4 1.4 0 112.8 0 11.193 11.193 0 0020.89 5.6 1.4 1.4 0 012.422 1.403A14.045 14.045 0 0114 28z"/></symbol><symbol id="icon-person-icon" viewBox="0 0 20 20"><path d="M10 11.188c3.105 0 5.625-2.394 5.625-5.344S13.105.5 10 .5 4.375 2.894 4.375 5.844s2.52 5.343 5.625 5.343zm5 1.187h-2.152a7.124 7.124 0 01-5.695 0H5c-2.762 0-5 2.126-5 4.75v.594c0 .983.84 1.781 1.875 1.781h16.25c1.035 0 1.875-.798 1.875-1.781v-.594c0-2.624-2.238-4.75-5-4.75z"/></symbol><symbol id="icon-section-icon" viewBox="0 0 54 40"><path d="M16.2 19.678c5.223 0 9.45-4.401 9.45-9.839C25.65 4.401 21.423 0 16.2 0c-5.223 0-9.45 4.401-9.45 9.839 0 5.438 4.227 9.839 9.45 9.839zm6.48 2.811h-.7c-1.755.879-3.704 1.406-5.78 1.406s-4.016-.527-5.78-1.406h-.7C4.354 22.49 0 27.022 0 32.61v2.53c0 2.328 1.814 4.217 4.05 4.217h24.3c2.236 0 4.05-1.889 4.05-4.217v-2.53c0-5.587-4.354-10.12-9.72-10.12zm17.82-2.811c4.472 0 8.1-3.778 8.1-8.433 0-4.656-3.628-8.434-8.1-8.434-4.472 0-8.1 3.778-8.1 8.434 0 4.655 3.628 8.433 8.1 8.433zm4.05 2.811h-.32c-1.173.422-2.414.703-3.73.703-1.316 0-2.557-.281-3.73-.703h-.32c-1.721 0-3.308.518-4.7 1.353a13.144 13.144 0 013.35 8.767v3.374c0 .193-.042.377-.05.562h14.9c2.236 0 4.05-1.889 4.05-4.217 0-5.438-4.227-9.839-9.45-9.839z"/></symbol><symbol id="icon-explore" viewBox="0 0 14 7"><path d="M10.305 0C8.86 0 7.728.903 7 1.72 6.272.902 5.14 0 3.695 0 1.658 0 0 1.57 0 3.5S1.658 7 3.695 7C5.14 7 6.272 6.097 7 5.28 7.728 6.098 8.86 7 10.305 7 12.342 7 14 5.43 14 3.5S12.342 0 10.305 0zm-6.61 4.9c-.88 0-1.595-.628-1.595-1.4 0-.772.715-1.4 1.595-1.4.835 0 1.605.79 2.056 1.4-.446.604-1.223 1.4-2.056 1.4zm6.61 0C9.47 4.9 8.7 4.11 8.25 3.5c.446-.604 1.223-1.4 2.056-1.4.88 0 1.595.628 1.595 1.4 0 .772-.715 1.4-1.595 1.4z"/></symbol><symbol id="icon-get-started" viewBox="0 0 14 15"><path d="M6.125 3.125l.438-.875.875-.437-.875-.438L6.125.5l-.438.875-.875.438.875.437.438.875zm-3.938 1.75l.73-1.458 1.458-.73-1.459-.729L2.188.5l-.73 1.458L0 2.688l1.459.729.728 1.458zm9.626 3.5l-.73 1.458-1.458.73 1.459.729.729 1.458.728-1.458 1.459-.73-1.459-.729-.729-1.458zm1.93-5.298l-2.32-2.32a.87.87 0 00-1.237 0l-9.93 9.93a.875.875 0 000 1.237l2.32 2.32a.872.872 0 001.238 0l9.93-9.93a.874.874 0 000-1.237zM9.83 6.063L8.437 4.671l2.368-2.368 1.392 1.392-2.368 2.368z"/></symbol><symbol id="icon-notifications" viewBox="0 0 37 38"><g filter="url(#filter0_d_952_270)"><path d="M16 27.25a3.133 3.133 0 003.141-3.125H12.86A3.133 3.133 0 0016 27.25zm10.577-7.31c-.949-1.014-2.724-2.539-2.724-7.534 0-3.794-2.675-6.83-6.283-7.576V3.812c0-.862-.703-1.562-1.57-1.562-.867 0-1.57.7-1.57 1.563V4.83c-3.608.745-6.283 3.782-6.283 7.576 0 4.995-1.775 6.52-2.724 7.534A1.52 1.52 0 005 21c.005.8.637 1.563 1.576 1.563h18.848c.939 0 1.571-.762 1.576-1.563a1.52 1.52 0 00-.423-1.06z"/></g><g filter="url(#filter1_d_952_270)"><circle cx="27" cy="24.75" r="5"/></g><path d="M26.934 27.83a2.176 2.176 0 01-.716-.137 1.713 1.713 0 01-.653-.44c-.197-.209-.355-.49-.475-.844-.12-.356-.179-.803-.179-1.34 0-.516.049-.972.145-1.37.097-.4.237-.736.42-1.009.184-.274.406-.483.665-.625a1.82 1.82 0 01.884-.213c.326 0 .615.066.87.196s.463.309.624.54c.161.231.265.497.313.798h-.694a1.285 1.285 0 00-.375-.65c-.185-.173-.431-.259-.738-.259-.45 0-.806.196-1.065.588-.258.392-.388.943-.39 1.65h.046a1.708 1.708 0 011.432-.772c.333 0 .638.083.914.25.277.165.498.393.665.685.167.29.25.622.25.997 0 .36-.08.69-.241.989a1.84 1.84 0 01-.68.71c-.29.174-.63.26-1.022.255zm0-.625c.239 0 .453-.06.642-.18a1.28 1.28 0 00.452-.48c.112-.2.167-.424.167-.67 0-.24-.054-.46-.162-.656a1.234 1.234 0 00-.44-.475 1.165 1.165 0 00-.636-.176c-.18 0-.348.036-.503.108-.155.07-.292.167-.41.29a1.398 1.398 0 00-.272.423 1.346 1.346 0 00.511 1.63c.192.124.409.186.651.186z"/><defs><filter id="filter0_d_952_270" x="0" y=".25" width="32" height="35" filterUnits="userSpaceOnUse" color-interpolation-filters="sRGB"><feFlood flood-opacity="0" result="BackgroundImageFix"/><feColorMatrix in="SourceAlpha" values="0 0 0 0 0 0 0 0 0 0 0 0 0 0 0 0 0 0 127 0" result="hardAlpha"/><feOffset dy="3"/><feGaussianBlur stdDeviation="2.5"/><feComposite in2="hardAlpha" operator="out"/><feColorMatrix values="0 0 0 0 0 0 0 0 0 0 0 0 0 0 0 0 0 0 0.25 0"/><feBlend in2="BackgroundImageFix" result="effect1_dropShadow_952_270"/><feBlend in="SourceGraphic" in2="effect1_dropShadow_952_270" result="shape"/></filter><filter id="filter1_d_952_270" x="17" y="17.75" width="20" height="20" filterUnits="userSpaceOnUse" color-interpolation-filters="sRGB"><feFlood flood-opacity="0" result="BackgroundImageFix"/><feColorMatrix in="SourceAlpha" values="0 0 0 0 0 0 0 0 0 0 0 0 0 0 0 0 0 0 127 0" result="hardAlpha"/><feOffset dy="3"/><feGaussianBlur stdDeviation="2.5"/><feComposite in2="hardAlpha" operator="out"/><feColorMatrix values="0 0 0 0 0 0 0 0 0 0 0 0 0 0 0 0 0 0 0.25 0"/><feBlend in2="BackgroundImageFix" result="effect1_dropShadow_952_270"/><feBlend in="SourceGraphic" in2="effect1_dropShadow_952_270" result="shape"/></filter></defs></symbol><symbol id="icon-search" viewBox="0 0 14 15"><path d="M13.81 12.604l-2.727-2.726a.656.656 0 00-.465-.191h-.445A5.687 5.687 0 005.688.5a5.687 5.687 0 100 11.374 5.66 5.66 0 003.5-1.203v.446c0 .174.069.341.192.464l2.726 2.726a.653.653 0 00.927 0l.774-.774a.66.66 0 00.003-.93zM5.688 9.687a3.498 3.498 0 01-3.5-3.5c0-1.933 1.564-3.5 3.5-3.5 1.933 0 3.5 1.564 3.5 3.5 0 1.933-1.564 3.5-3.5 3.5z"/></symbol><symbol id="icon-campaign-settings" viewBox="0 0 21 20"><path d="M20.244 12.403l-1.794-.992a7.442 7.442 0 000-2.83l1.794-.992a.478.478 0 00.232-.565 9.95 9.95 0 00-2.304-3.814.523.523 0 00-.623-.093l-1.795.992a8.04 8.04 0 00-2.56-1.415V.714a.488.488 0 00-.397-.472 11.05 11.05 0 00-4.6 0 .488.488 0 00-.395.472v1.984a8.296 8.296 0 00-2.561 1.415l-1.79-.992a.517.517 0 00-.624.093A9.891 9.891 0 00.523 7.028a.474.474 0 00.232.565l1.794.992a7.44 7.44 0 000 2.83l-1.794.992a.479.479 0 00-.232.565 9.952 9.952 0 002.304 3.814c.16.166.422.206.624.093l1.794-.992a8.053 8.053 0 002.561 1.415v1.984c0 .226.164.424.396.472 1.546.33 3.13.315 4.6 0a.488.488 0 00.396-.472v-1.984a8.296 8.296 0 002.56-1.415l1.795.992a.517.517 0 00.623-.093 9.89 9.89 0 002.304-3.814.489.489 0 00-.236-.569zm-9.746.819c-1.858 0-3.37-1.448-3.37-3.226S8.64 6.77 10.498 6.77c1.857 0 3.37 1.448 3.37 3.226s-1.513 3.226-3.37 3.226z"/></symbol><symbol id="icon-contributors" viewBox="0 0 25 18"><path d="M4.576 7.714c1.323 0 2.4-1.153 2.4-2.571 0-1.418-1.077-2.572-2.4-2.572-1.324 0-2.4 1.154-2.4 2.572 0 1.418 1.076 2.571 2.4 2.571zm16.8 0c1.323 0 2.4-1.153 2.4-2.571 0-1.418-1.077-2.572-2.4-2.572-1.324 0-2.4 1.154-2.4 2.572 0 1.418 1.076 2.571 2.4 2.571zM22.576 9h-2.4c-.66 0-1.257.285-1.692.747 1.512.888 2.584 2.491 2.817 4.396h2.475c.663 0 1.2-.575 1.2-1.286v-1.286c0-1.418-1.077-2.571-2.4-2.571zm-9.6 0c2.32 0 4.2-2.013 4.2-4.5s-1.88-4.5-4.2-4.5c-2.322 0-4.2 2.013-4.2 4.5s1.878 4.5 4.2 4.5zm2.88 1.286h-.312a5.586 5.586 0 01-2.568.643 5.599 5.599 0 01-2.57-.643h-.31c-2.385 0-4.32 2.073-4.32 4.628v1.157c0 1.065.806 1.929 1.8 1.929h10.8c.993 0 1.8-.864 1.8-1.929v-1.157c0-2.555-1.935-4.628-4.32-4.628zm-8.39-.539A2.315 2.315 0 005.777 9h-2.4c-1.324 0-2.4 1.153-2.4 2.571v1.286c0 .711.536 1.286 1.2 1.286h2.47c.237-1.905 1.31-3.508 2.82-4.396z"/></symbol><symbol id="icon-dashboard" viewBox="0 0 21 20"><path d="M18.017 0H3.007A2.503 2.503 0 00.502 2.5c-.004 0 0-.179 0 15a2.5 2.5 0 002.5 2.5h15.011a2.502 2.502 0 002.487-2.5v-15A2.495 2.495 0 0018.017 0zm-8.72 15.147a1.201 1.201 0 01-1.2 1.188H4.404A1.197 1.197 0 013.2 15.147V3.8c0-.66.536-1.2 1.2-1.2h3.702c.66 0 1.201.535 1.201 1.2v11.348h-.004zm8.622-5a1.2 1.2 0 01-1.2 1.201h-3.617a1.201 1.201 0 01-1.201-1.2V3.803a1.2 1.2 0 011.196-1.201h3.621a1.2 1.2 0 011.201 1.2v6.344z"/></symbol><symbol id="icon-toggle" viewBox="0 0 25 39"><path d="M.893 11.275h23.214c.493 0 .893-.475.893-1.06V7.56c0-.586-.4-1.061-.893-1.061H.893C.4 6.5 0 6.975 0 7.561v2.653c0 .586.4 1.061.893 1.061zm0 10.613h23.214c.493 0 .893-.475.893-1.062v-2.652c0-.587-.4-1.062-.893-1.062H.893c-.493 0-.893.475-.893 1.062v2.652c0 .587.4 1.062.893 1.062zm0 10.612h23.214c.493 0 .893-.475.893-1.061v-2.653c0-.586-.4-1.062-.893-1.062H.893C.4 27.724 0 28.2 0 28.787v2.653c0 .586.4 1.061.893 1.061z"/></symbol><symbol id="icon-eye" viewBox="0 0 33 23"><path d="M32.64 10.664C29.627 4.602 23.663.5 16.833.5S4.037 4.604 1.026 10.664a1.901 1.901 0 000 1.672C4.04 18.398 10.004 22.5 16.833 22.5c6.83 0 12.796-4.104 15.807-10.164a1.9 1.9 0 000-1.672zM16.833 19.75a7.83 7.83 0 01-4.445-1.39 8.2 8.2 0 01-2.946-3.703 8.49 8.49 0 01-.455-4.766 8.333 8.333 0 012.19-4.225 7.928 7.928 0 014.095-2.257 7.775 7.775 0 014.623.469 8.059 8.059 0 013.59 3.039 8.435 8.435 0 011.348 4.583 8.47 8.47 0 01-.608 3.158 8.269 8.269 0 01-1.734 2.677 7.985 7.985 0 01-2.596 1.788 7.787 7.787 0 01-3.062.627zm0-13.75a5.16 5.16 0 00-1.406.217c.377.528.558 1.178.51 1.832a2.78 2.78 0 01-.771 1.731 2.6 2.6 0 01-3.455.27 5.65 5.65 0 00.15 3.357 5.463 5.463 0 002.02 2.637c.925.64 2.02.964 3.133.928a5.22 5.22 0 003.069-1.13 5.492 5.492 0 001.855-2.763 5.65 5.65 0 00-.055-3.36 5.477 5.477 0 00-1.945-2.697A5.212 5.212 0 0016.833 6z"/></symbol><symbol id="icon-like" viewBox="0 0 56 53"><g filter="url(#filter0_d_808_245)"><path d="M47.34 4.077C42.204-.613 34.564.23 29.848 5.443l-1.846 2.039-1.847-2.039C21.448.23 13.798-.614 8.66 4.077 2.773 9.46 2.464 19.123 7.732 24.959l18.14 20.07c1.172 1.295 3.076 1.295 4.247 0l18.14-20.07c5.279-5.835 4.97-15.498-.918-20.882z"/><path d="M30.218 5.779C34.774.741 42.098-.034 47.004 4.445c5.679 5.194 5.983 14.541.885 20.178l-18.14 20.069c-.974 1.076-2.532 1.076-3.505 0L8.103 24.624c-5.09-5.637-4.786-14.984.894-20.178C13.903-.033 21.237.743 25.783 5.778l1.847 2.04.37.409.371-.41 1.847-2.038z" stroke-opacity=".2"/></g><defs><filter id="filter0_d_808_245" x="0" y="0" width="56" height="53" filterUnits="userSpaceOnUse" color-interpolation-filters="sRGB"><feFlood flood-opacity="0" result="BackgroundImageFix"/><feColorMatrix in="SourceAlpha" values="0 0 0 0 0 0 0 0 0 0 0 0 0 0 0 0 0 0 127 0" result="hardAlpha"/><feOffset dy="3"/><feGaussianBlur stdDeviation="2"/><feComposite in2="hardAlpha" operator="out"/><feColorMatrix values="0 0 0 0 0 0 0 0 0 0 0 0 0 0 0 0 0 0 0.25 0"/><feBlend in2="BackgroundImageFix" result="effect1_dropShadow_808_245"/><feBlend in="SourceGraphic" in2="effect1_dropShadow_808_245" result="shape"/></filter></defs></symbol><symbol id="icon-money" viewBox="0 0 81 56"><g filter="url(#filter0_d_808_251)"><path d="M74.85 3.406C70.426 1.663 65.998 1 61.572 1 47.523.999 33.476 7.68 19.427 7.68c-3.524 0-7.045-.42-10.568-1.47a4.132 4.132 0 00-1.18-.174C5.714 6.036 4 7.463 4 9.444v33.992c0 1.353.825 2.636 2.149 3.157C10.573 48.337 15 49 19.427 49c14.049 0 28.097-6.68 42.146-6.68 3.524 0 7.045.42 10.568 1.47a4.13 4.13 0 001.18.173c1.963 0 3.679-1.427 3.679-3.408V6.564a3.406 3.406 0 00-2.15-3.158zM9.475 11.738c2.295.54 4.69.81 7.154.957-.67 3.149-3.618 5.522-7.154 5.522v-6.48zm0 30.536v-5.12c3.92 0 7.092 2.922 7.267 6.579-2.57-.194-4.972-.676-7.267-1.46zm31.024-6.988c-5.04 0-9.124-4.606-9.124-10.286s4.085-10.286 9.124-10.286c5.04 0 9.125 4.605 9.125 10.286 0 5.682-4.087 10.286-9.125 10.286zm31.025 2.976c-1.998-.47-4.073-.734-6.196-.904.67-2.794 3.137-4.916 6.196-5.28v6.184zm0-25.297c-3.523-.42-6.257-3.182-6.366-6.595 2.229.232 4.345.667 6.366 1.356v5.239z"/><path d="M6.332 46.127c4.357 1.718 8.72 2.373 13.095 2.373 6.955 0 13.922-1.654 20.957-3.327l.03-.007c7.004-1.665 14.076-3.346 21.16-3.346 3.563 0 7.133.425 10.71 1.49.349.104.698.153 1.037.153 1.74 0 3.179-1.253 3.179-2.908V6.565a2.906 2.906 0 00-1.833-2.693C70.31 2.155 65.947 1.5 61.572 1.5c-6.956 0-13.922 1.653-20.957 3.326l-.032.007C33.581 6.498 26.51 8.18 19.427 8.18c-3.564 0-7.134-.425-10.71-1.49L6.331 46.126zm0 0a2.902 2.902 0 01-1.832-2.69V9.443c0-1.655 1.439-2.908 3.178-2.908.34 0 .689.048 1.038.152l-2.384 39.44zm3.257-34.876l-.614-.144v7.61h.5c3.757 0 6.92-2.524 7.643-5.918l.121-.57-.58-.034c-2.448-.144-4.813-.413-7.07-.944zm-.114 25.403h-.5v5.62h.5l-.162.473c2.338.797 4.782 1.288 7.391 1.484l.564.043-.027-.565c-.188-3.944-3.6-7.055-7.766-7.055zm61.934 2.095l.615.145v-7.379l-.56.066c-3.25.387-5.9 2.647-6.622 5.66l-.136.569.582.046c2.109.17 4.157.43 6.121.893zm.056-25.288l.559.067V7.369l-.339-.116c-2.061-.703-4.215-1.144-6.475-1.38l-.57-.06.019.573c.116 3.685 3.063 6.63 6.806 7.075zM30.875 25c0 5.898 4.253 10.786 9.624 10.786 5.37 0 9.625-4.886 9.625-10.786 0-5.899-4.255-10.786-9.625-10.786S30.875 19.101 30.875 25z" stroke-opacity=".2"/></g><defs><filter id="filter0_d_808_251" x="0" y="0" width="81" height="56" filterUnits="userSpaceOnUse" color-interpolation-filters="sRGB"><feFlood flood-opacity="0" result="BackgroundImageFix"/><feColorMatrix in="SourceAlpha" values="0 0 0 0 0 0 0 0 0 0 0 0 0 0 0 0 0 0 127 0" result="hardAlpha"/><feOffset dy="3"/><feGaussianBlur stdDeviation="2"/><feComposite in2="hardAlpha" operator="out"/><feColorMatrix values="0 0 0 0 0 0 0 0 0 0 0 0 0 0 0 0 0 0 0.25 0"/><feBlend in2="BackgroundImageFix" result="effect1_dropShadow_808_251"/><feBlend in="SourceGraphic" in2="effect1_dropShadow_808_251" result="shape"/></filter></defs></symbol><symbol id="icon-time" viewBox="0 0 56 56"><g filter="url(#filter0_d_808_249)"><path d="M28 1C14.742 1 4 11.742 4 25s10.742 24 24 24 24-10.742 24-24S41.258 1 28 1zm5.526 33.88l-8.536-6.203a1.169 1.169 0 01-.474-.938V11.452c0-.64.523-1.162 1.161-1.162h4.646c.638 0 1.16.523 1.16 1.162v13.325l6.146 4.471a1.16 1.16 0 01.252 1.626l-2.73 3.755a1.17 1.17 0 01-1.625.252z"/><path d="M33.232 35.285l.001.001a1.67 1.67 0 002.321-.36l.002-.003 2.73-3.755v-.001a1.66 1.66 0 00-.364-2.323v-.001l-5.938-4.32V11.452c0-.915-.747-1.662-1.661-1.662h-4.646c-.914 0-1.66.747-1.66 1.662v16.287c0 .526.248 1.023.675 1.34l.004.003 8.536 6.203zM4.5 25C4.5 12.018 15.018 1.5 28 1.5S51.5 12.018 51.5 25 40.982 48.5 28 48.5 4.5 37.982 4.5 25z" stroke-opacity=".2"/></g><defs><filter id="filter0_d_808_249" x="0" y="0" width="56" height="56" filterUnits="userSpaceOnUse" color-interpolation-filters="sRGB"><feFlood flood-opacity="0" result="BackgroundImageFix"/><feColorMatrix in="SourceAlpha" values="0 0 0 0 0 0 0 0 0 0 0 0 0 0 0 0 0 0 127 0" result="hardAlpha"/><feOffset dy="3"/><feGaussianBlur stdDeviation="2"/><feComposite in2="hardAlpha" operator="out"/><feColorMatrix values="0 0 0 0 0 0 0 0 0 0 0 0 0 0 0 0 0 0 0.25 0"/><feBlend in2="BackgroundImageFix" result="effect1_dropShadow_808_249"/><feBlend in="SourceGraphic" in2="effect1_dropShadow_808_249" result="shape"/></filter></defs></symbol><symbol id="icon-section-icon" viewBox="0 0 34 42"><path d="M8.4 8.4H6.3a2.1 2.1 0 110-4.2h23.1V2.1A2.1 2.1 0 0027.3 0H4.2A4.2 4.2 0 000 4.2v33.6C0 40.11 1.89 42 4.2 42h25.2a4.2 4.2 0 004.2-4.2V10.5a2.1 2.1 0 00-2.1-2.1H16.8v16.8L12.6 21l-4.2 4.2V8.4z"/></symbol><symbol id="icon-facebook_alt" viewBox="0 0 32 32"><path d="M28.571 0H3.43A3.429 3.429 0 000 3.429V28.57A3.429 3.429 0 003.429 32h9.803V21.12h-4.5V16h4.5v-3.903c0-4.44 2.643-6.891 6.69-6.891 1.94 0 3.967.345 3.967.345V9.91h-2.234c-2.2 0-2.887 1.365-2.887 2.766V16h4.913l-.786 5.12h-4.127V32h9.803A3.429 3.429 0 0032 28.571V3.43A3.428 3.428 0 0028.571 0z"/></symbol><symbol id="icon-instagram_alt" viewBox="0 0 32 32"><path d="M16 12.19a3.81 3.81 0 10.003 7.62A3.81 3.81 0 0016 12.19zm8.908-2.929a3.858 3.858 0 00-2.172-2.172c-1.5-.592-5.072-.459-6.736-.459-1.664 0-5.232-.138-6.736.46A3.857 3.857 0 007.09 9.26c-.591 1.5-.459 5.075-.459 6.738 0 1.663-.132 5.234.462 6.739a3.858 3.858 0 002.172 2.172c1.5.592 5.072.46 6.737.46s5.231.137 6.736-.46a3.857 3.857 0 002.172-2.172c.596-1.5.459-5.075.459-6.738 0-1.663.137-5.233-.46-6.738h-.002zM16 21.857a5.857 5.857 0 115.413-3.614A5.848 5.848 0 0116 21.857zm6.099-10.593a1.367 1.367 0 111.264-.843 1.364 1.364 0 01-1.262.846l-.002-.003zM28.57 0H3.43A3.429 3.429 0 000 3.429V28.57A3.429 3.429 0 003.429 32H28.57A3.429 3.429 0 0032 28.571V3.43A3.428 3.428 0 0028.571 0zm-1.22 20.714c-.093 1.831-.51 3.453-1.847 4.786-1.336 1.333-2.957 1.76-4.786 1.846-1.886.107-7.542.107-9.428 0-1.83-.092-3.447-.51-4.786-1.846-1.338-1.336-1.76-2.959-1.846-4.786-.107-1.887-.107-7.543 0-9.428.092-1.831.505-3.453 1.846-4.786 1.342-1.333 2.962-1.754 4.786-1.841 1.886-.107 7.542-.107 9.428 0 1.831.092 3.453.51 4.786 1.846 1.334 1.336 1.76 2.959 1.847 4.79.106 1.88.106 7.53 0 9.42z"/></symbol><symbol id="icon-linkedin_alt" viewBox="0 0 32 32"><path d="M0 2.292C0 1.026 1.052 0 2.35 0h27.3C30.948 0 32 1.026 32 2.292v27.416C32 30.974 30.948 32 29.65 32H2.35C1.052 32 0 30.974 0 29.708V2.292zm9.886 24.496v-14.45H5.084v14.45h4.802zm-2.4-16.424c1.674 0 2.716-1.108 2.716-2.496-.03-1.418-1.04-2.496-2.684-2.496-1.644 0-2.718 1.08-2.718 2.496 0 1.388 1.042 2.496 2.654 2.496h.032zm9.816 16.424v-8.07c0-.432.032-.864.16-1.172.346-.862 1.136-1.756 2.464-1.756 1.738 0 2.432 1.324 2.432 3.268v7.73h4.802V18.5c0-4.44-2.368-6.504-5.528-6.504-2.548 0-3.69 1.4-4.33 2.386v.05h-.032l.032-.05v-2.044h-4.8c.06 1.356 0 14.45 0 14.45h4.8z"/></symbol><symbol id="icon-twitter_alt" viewBox="0 0 32 32"><path d="M28.571 0H3.43A3.43 3.43 0 000 3.429V28.57A3.43 3.43 0 003.429 32H28.57A3.43 3.43 0 0032 28.571V3.43A3.43 3.43 0 0028.571 0zM25.08 11.343c.014.2.014.407.014.607 0 6.193-4.714 13.329-13.329 13.329-2.657 0-5.121-.772-7.193-2.1.379.042.743.057 1.129.057a9.392 9.392 0 005.814-2 4.69 4.69 0 01-4.378-3.25c.721.107 1.371.107 2.114-.086a4.685 4.685 0 01-3.75-4.6v-.057c.621.35 1.35.564 2.114.593a4.675 4.675 0 01-2.085-3.9c0-.872.228-1.672.635-2.365a13.302 13.302 0 009.657 4.9c-.664-3.178 1.715-5.757 4.572-5.757 1.35 0 2.564.565 3.421 1.479a9.18 9.18 0 002.972-1.129 4.673 4.673 0 01-2.057 2.579 9.324 9.324 0 002.7-.729 9.86 9.86 0 01-2.35 2.429z"/></symbol><symbol id="icon-favorite" viewBox="0 0 33 33"><g filter="url(#filter0_d_1017_437)"><path d="M15.26 3.565l-2.806 5.688-6.277.915c-1.125.164-1.577 1.551-.76 2.346l4.541 4.425-1.074 6.251c-.193 1.13.997 1.977 1.993 1.448l5.616-2.951 5.615 2.951c.997.524 2.187-.318 1.994-1.448l-1.075-6.25 4.542-4.426c.816-.795.365-2.182-.76-2.346l-6.278-.915-2.805-5.688c-.503-1.014-1.96-1.027-2.466 0z"/></g><defs><filter id="filter0_d_1017_437" x="0" y=".799" width="32.985" height="32" filterUnits="userSpaceOnUse" color-interpolation-filters="sRGB"><feFlood flood-opacity="0" result="BackgroundImageFix"/><feColorMatrix in="SourceAlpha" values="0 0 0 0 0 0 0 0 0 0 0 0 0 0 0 0 0 0 127 0" result="hardAlpha"/><feOffset dy="3"/><feGaussianBlur stdDeviation="2.5"/><feComposite in2="hardAlpha" operator="out"/><feColorMatrix values="0 0 0 0 0 0 0 0 0 0 0 0 0 0 0 0 0 0 0.25 0"/><feBlend in2="BackgroundImageFix" result="effect1_dropShadow_1017_437"/><feBlend in="SourceGraphic" in2="effect1_dropShadow_1017_437" result="shape"/></filter></defs></symbol><symbol id="icon-person-pin" viewBox="0 0 22 17"><path d="M19.75.8H2.25C1.284.8.5 1.566.5 2.513v12.571c0 .947.784 1.714 1.75 1.714h17.5c.966 0 1.75-.767 1.75-1.714V2.514c0-.947-.784-1.715-1.75-1.715zM6.917 4.227c1.287 0 2.333 1.025 2.333 2.286 0 1.26-1.046 2.285-2.333 2.285-1.287 0-2.334-1.025-2.334-2.285 0-1.261 1.047-2.286 2.334-2.286zM11 12.685c0 .379-.365.686-.817.686H3.65c-.452 0-.817-.307-.817-.686V12c0-1.135 1.098-2.057 2.45-2.057h.183a3.831 3.831 0 002.902 0h.182c1.353 0 2.45.922 2.45 2.057v.686zm8.167-1.886a.29.29 0 01-.292.286h-5.25a.29.29 0 01-.292-.286v-.571a.29.29 0 01.292-.286h5.25a.29.29 0 01.292.286v.571zm0-2.285a.29.29 0 01-.292.285h-5.25a.29.29 0 01-.292-.285v-.572a.29.29 0 01.292-.285h5.25a.29.29 0 01.292.285v.572zm0-2.286a.29.29 0 01-.292.286h-5.25a.29.29 0 01-.292-.286v-.571a.29.29 0 01.292-.286h5.25a.29.29 0 01.292.286v.571z"/></symbol><symbol id="icon-section-icon" viewBox="0 0 54 38"><path d="M52.41 1.895C49.137.522 45.86 0 42.588 0 32.195 0 21.804 5.26 11.41 5.26c-2.606 0-5.21-.33-7.817-1.158a2.885 2.885 0 00-.873-.136C1.269 3.966 0 5.089 0 6.649v26.769c0 1.066.61 2.075 1.59 2.486 3.272 1.373 6.548 1.895 9.821 1.895 10.393 0 20.785-5.26 31.178-5.26 2.606 0 5.21.33 7.817 1.157.293.093.586.137.873.137 1.452 0 2.721-1.124 2.721-2.684V4.382c0-1.067-.61-2.076-1.59-2.487zM27 27c-3.729 0-6.75-3.628-6.75-8.1 0-4.474 3.022-8.1 6.75-8.1 3.727 0 6.75 3.626 6.75 8.1S30.725 27 27 27z"/></symbol></svg>